<svg width="2160" height="720" xmlns="http://www.w3.org/2000/svg">
<defs>
  <marker id="arr" viewBox="0 0 10 10" refX="8" refY="5"
    markerWidth="6" markerHeight="6" orient="auto-start-reverse">
    <path d="M2 1L8 5L2 9" fill="none" stroke="#534AB7" stroke-width="1.5"
      stroke-linecap="round" stroke-linejoin="round"/>
  </marker>
</defs>
<rect width="2160" height="720" fill="#F1EFE8"/>

<!-- 타이틀 -->
<text x="1080.0" y="40" text-anchor="middle" font-size="14" fill="#26215C"
  font-family="Arial" font-weight="bold">TOPIK 문제은행 앱 — 온보딩 플로우</text>

<text x="180.0" y="86" font-size="9.5" fill="#888780" font-family="Arial" font-weight="normal" text-anchor="middle">스플래시</text>
  <rect x="50" y="110" width="260" height="520" rx="22" fill="#FFFFFF" stroke="#D3D1C7" stroke-width="1.5"/>
  <rect x="52" y="110" width="256" height="32" rx="8" fill="#F1EFE8" stroke="#D3D1C7" stroke-width="0.5"/>
  <text x="180.0" y="130" text-anchor="middle" font-size="10" fill="#888780" font-family="Arial">9:41</text><rect x="52" y="142" width="256" height="488" rx="14" fill="#26215C"/><circle cx="180.0" cy="310" r="48" fill="#534AB7"/><text x="180.0" y="306" font-size="32" fill="#FFFFFF" font-family="Arial" font-weight="bold" text-anchor="middle">T</text><text x="180.0" y="322" font-size="11" fill="#AFA9EC" font-family="Arial" font-weight="normal" text-anchor="middle">OPIK</text><text x="180.0" y="382" font-size="18" fill="#FFFFFF" font-family="Arial" font-weight="bold" text-anchor="middle">TOPIK 문제은행</text><text x="180.0" y="404" font-size="10" fill="#AFA9EC" font-family="Arial" font-weight="normal" text-anchor="middle">한국어능력시험 학습 플랫폼</text><rect x="130.0" y="470" width="100" height="4" rx="2" fill="#534AB7"/><rect x="130.0" y="470" width="60" height="4" rx="2" fill="#AFA9EC"/><text x="180.0" y="600" font-size="8" fill="#534AB7" font-family="Arial" font-weight="normal" text-anchor="middle">Powered by Claude AI</text>
  <line x1="314" y1="370.0" x2="346" y2="370.0" stroke="#534AB7" stroke-width="1.5" marker-end="url(#arr)"/><text x="480.0" y="86" font-size="9.5" fill="#888780" font-family="Arial" font-weight="normal" text-anchor="middle">Step 1 · 홍보 ① 문제은행</text>
  <rect x="350" y="110" width="260" height="520" rx="22" fill="#FFFFFF" stroke="#D3D1C7" stroke-width="1.5"/>
  <rect x="352" y="110" width="256" height="32" rx="8" fill="#F1EFE8" stroke="#D3D1C7" stroke-width="0.5"/>
  <text x="480.0" y="130" text-anchor="middle" font-size="10" fill="#888780" font-family="Arial">9:41</text><rect x="352" y="142" width="256" height="488" rx="14" fill="#FFFFFF"/><rect x="352" y="142" width="256" height="200" rx="14" fill="#EEEDFE"/><rect x="444.0" y="200" width="72" height="72" rx="20" fill="#534AB7"/>
  <text x="480.0" y="246.07999999999998" font-size="32" fill="#FFFFFF" font-family="Arial" font-weight="bold" text-anchor="middle">📚</text><rect x="459.0" y="360" width="20" height="8" rx="4" fill="#534AB7"/><rect x="475.0" y="360" width="8" height="8" rx="4" fill="#D3D1C7"/><rect x="491.0" y="360" width="8" height="8" rx="4" fill="#D3D1C7"/><text x="480.0" y="392" font-size="15" fill="#1a1a1a" font-family="Arial" font-weight="bold" text-anchor="middle">TOPIK 합격 문제은행</text><text x="480.0" y="416" font-size="10" fill="#888780" font-family="Arial" font-weight="normal" text-anchor="middle">기출문제 · 연습문제 · 모의고사를</text><text x="480.0" y="434" font-size="10" fill="#888780" font-family="Arial" font-weight="normal" text-anchor="middle">한 앱에서 체계적으로 학습해요.</text><text x="596" y="154" font-size="9" fill="#888780" font-family="Arial" font-weight="normal" text-anchor="end">건너뛰기</text><rect x="370" y="560" width="220" height="36" rx="10" fill="#534AB7"/><text x="480.0" y="582" font-size="12" fill="#FFFFFF" font-family="Arial" font-weight="bold" text-anchor="middle">다음 ›</text>
  <line x1="614" y1="370.0" x2="646" y2="370.0" stroke="#534AB7" stroke-width="1.5" marker-end="url(#arr)"/><text x="780.0" y="86" font-size="9.5" fill="#888780" font-family="Arial" font-weight="normal" text-anchor="middle">Step 2 · 홍보 ② 다국어</text>
  <rect x="650" y="110" width="260" height="520" rx="22" fill="#FFFFFF" stroke="#D3D1C7" stroke-width="1.5"/>
  <rect x="652" y="110" width="256" height="32" rx="8" fill="#F1EFE8" stroke="#D3D1C7" stroke-width="0.5"/>
  <text x="780.0" y="130" text-anchor="middle" font-size="10" fill="#888780" font-family="Arial">9:41</text><rect x="652" y="142" width="256" height="488" rx="14" fill="#FFFFFF"/><rect x="652" y="142" width="256" height="200" rx="14" fill="#EEEDFE"/><rect x="744.0" y="200" width="72" height="72" rx="20" fill="#0F6E56"/>
  <text x="780.0" y="246.07999999999998" font-size="32" fill="#FFFFFF" font-family="Arial" font-weight="bold" text-anchor="middle">🌏</text><rect x="759.0" y="360" width="8" height="8" rx="4" fill="#D3D1C7"/><rect x="775.0" y="360" width="20" height="8" rx="4" fill="#534AB7"/><rect x="791.0" y="360" width="8" height="8" rx="4" fill="#D3D1C7"/><text x="780.0" y="392" font-size="15" fill="#1a1a1a" font-family="Arial" font-weight="bold" text-anchor="middle">10개 언어 지원</text><text x="780.0" y="416" font-size="10" fill="#888780" font-family="Arial" font-weight="normal" text-anchor="middle">모국어로 문제 해설과 AI 피드백을</text><text x="780.0" y="434" font-size="10" fill="#888780" font-family="Arial" font-weight="normal" text-anchor="middle">바로 받을 수 있어요.</text><text x="896" y="154" font-size="9" fill="#888780" font-family="Arial" font-weight="normal" text-anchor="end">건너뛰기</text><rect x="670" y="560" width="220" height="36" rx="10" fill="#534AB7"/><text x="780.0" y="582" font-size="12" fill="#FFFFFF" font-family="Arial" font-weight="bold" text-anchor="middle">다음 ›</text>
  <line x1="914" y1="370.0" x2="946" y2="370.0" stroke="#534AB7" stroke-width="1.5" marker-end="url(#arr)"/><text x="1080.0" y="86" font-size="9.5" fill="#888780" font-family="Arial" font-weight="normal" text-anchor="middle">Step 3 · 홍보 ③ AI 피드백</text>
  <rect x="950" y="110" width="260" height="520" rx="22" fill="#FFFFFF" stroke="#D3D1C7" stroke-width="1.5"/>
  <rect x="952" y="110" width="256" height="32" rx="8" fill="#F1EFE8" stroke="#D3D1C7" stroke-width="0.5"/>
  <text x="1080.0" y="130" text-anchor="middle" font-size="10" fill="#888780" font-family="Arial">9:41</text><rect x="952" y="142" width="256" height="488" rx="14" fill="#FFFFFF"/><rect x="952" y="142" width="256" height="200" rx="14" fill="#EEEDFE"/><rect x="1044.0" y="200" width="72" height="72" rx="20" fill="#854F0B"/>
  <text x="1080.0" y="246.07999999999998" font-size="32" fill="#FFFFFF" font-family="Arial" font-weight="bold" text-anchor="middle">⚡</text><rect x="1059.0" y="360" width="8" height="8" rx="4" fill="#D3D1C7"/><rect x="1075.0" y="360" width="8" height="8" rx="4" fill="#D3D1C7"/><rect x="1091.0" y="360" width="20" height="8" rx="4" fill="#534AB7"/><text x="1080.0" y="392" font-size="15" fill="#1a1a1a" font-family="Arial" font-weight="bold" text-anchor="middle">AI 즉시 피드백</text><text x="1080.0" y="416" font-size="10" fill="#888780" font-family="Arial" font-weight="normal" text-anchor="middle">선택 즉시 정답 여부와 이유를</text><text x="1080.0" y="434" font-size="10" fill="#888780" font-family="Arial" font-weight="normal" text-anchor="middle">모국어로 설명해드려요.</text><text x="1196" y="154" font-size="9" fill="#888780" font-family="Arial" font-weight="normal" text-anchor="end">건너뛰기</text><rect x="970" y="560" width="220" height="36" rx="10" fill="#534AB7"/><text x="1080.0" y="582" font-size="12" fill="#FFFFFF" font-family="Arial" font-weight="bold" text-anchor="middle">다음 ›</text>
  <line x1="1214" y1="370.0" x2="1246" y2="370.0" stroke="#534AB7" stroke-width="1.5" marker-end="url(#arr)"/><text x="1380.0" y="86" font-size="9.5" fill="#888780" font-family="Arial" font-weight="normal" text-anchor="middle">Step 4 · 언어 선택</text>
  <rect x="1250" y="110" width="260" height="520" rx="22" fill="#FFFFFF" stroke="#D3D1C7" stroke-width="1.5"/>
  <rect x="1252" y="110" width="256" height="32" rx="8" fill="#F1EFE8" stroke="#D3D1C7" stroke-width="0.5"/>
  <text x="1380.0" y="130" text-anchor="middle" font-size="10" fill="#888780" font-family="Arial">9:41</text><rect x="1252" y="142" width="256" height="488" rx="14" fill="#FFFFFF"/><text x="1270" y="174" font-size="17" fill="#1a1a1a" font-family="Arial" font-weight="bold" text-anchor="start">학습 언어를</text><text x="1270" y="194" font-size="17" fill="#1a1a1a" font-family="Arial" font-weight="bold" text-anchor="start">선택해주세요</text><text x="1270" y="214" font-size="9.5" fill="#888780" font-family="Arial" font-weight="normal" text-anchor="start">모국어로 AI 피드백을 받아요.</text><rect x="1270.0" y="230" width="106.0" height="38" rx="8" fill="#EEEDFE" stroke="#534AB7" stroke-width="0.5"/><text x="1280.0" y="250.9" font-size="14" fill="#1a1a1a" font-family="Arial" font-weight="normal" text-anchor="start">🇻🇳</text><text x="1302.0" y="253.56" font-size="8.5" fill="#534AB7" font-family="Arial" font-weight="bold" text-anchor="start">Tiếng Việt</text><rect x="1384.0" y="230" width="106.0" height="38" rx="8" fill="#FFFFFF" stroke="#D3D1C7" stroke-width="0.5"/><text x="1394.0" y="250.9" font-size="14" fill="#1a1a1a" font-family="Arial" font-weight="normal" text-anchor="start">🇨🇳</text><text x="1416.0" y="253.56" font-size="8.5" fill="#1a1a1a" font-family="Arial" font-weight="normal" text-anchor="start">中文</text><rect x="1270.0" y="274" width="106.0" height="38" rx="8" fill="#FFFFFF" stroke="#D3D1C7" stroke-width="0.5"/><text x="1280.0" y="294.9" font-size="14" fill="#1a1a1a" font-family="Arial" font-weight="normal" text-anchor="start">🇯🇵</text><text x="1302.0" y="297.56" font-size="8.5" fill="#1a1a1a" font-family="Arial" font-weight="normal" text-anchor="start">日本語</text><rect x="1384.0" y="274" width="106.0" height="38" rx="8" fill="#FFFFFF" stroke="#D3D1C7" stroke-width="0.5"/><text x="1394.0" y="294.9" font-size="14" fill="#1a1a1a" font-family="Arial" font-weight="normal" text-anchor="start">🇺🇿</text><text x="1416.0" y="297.56" font-size="8.5" fill="#1a1a1a" font-family="Arial" font-weight="normal" text-anchor="start">O'zbek</text><rect x="1270.0" y="318" width="106.0" height="38" rx="8" fill="#FFFFFF" stroke="#D3D1C7" stroke-width="0.5"/><text x="1280.0" y="338.9" font-size="14" fill="#1a1a1a" font-family="Arial" font-weight="normal" text-anchor="start">🇲🇳</text><text x="1302.0" y="341.56" font-size="8.5" fill="#1a1a1a" font-family="Arial" font-weight="normal" text-anchor="start">Монгол</text><rect x="1384.0" y="318" width="106.0" height="38" rx="8" fill="#FFFFFF" stroke="#D3D1C7" stroke-width="0.5"/><text x="1394.0" y="338.9" font-size="14" fill="#1a1a1a" font-family="Arial" font-weight="normal" text-anchor="start">🇺🇸</text><text x="1416.0" y="341.56" font-size="8.5" fill="#1a1a1a" font-family="Arial" font-weight="normal" text-anchor="start">English</text><rect x="1270.0" y="362" width="106.0" height="38" rx="8" fill="#FFFFFF" stroke="#D3D1C7" stroke-width="0.5"/><text x="1280.0" y="382.9" font-size="14" fill="#1a1a1a" font-family="Arial" font-weight="normal" text-anchor="start">🇵🇭</text><text x="1302.0" y="385.56" font-size="8.5" fill="#1a1a1a" font-family="Arial" font-weight="normal" text-anchor="start">Filipino</text><rect x="1384.0" y="362" width="106.0" height="38" rx="8" fill="#FFFFFF" stroke="#D3D1C7" stroke-width="0.5"/><text x="1394.0" y="382.9" font-size="14" fill="#1a1a1a" font-family="Arial" font-weight="normal" text-anchor="start">🇹🇭</text><text x="1416.0" y="385.56" font-size="8.5" fill="#1a1a1a" font-family="Arial" font-weight="normal" text-anchor="start">ภาษาไทย</text><rect x="1270" y="452" width="220" height="36" rx="8" fill="#F1EFE8" stroke="#D3D1C7" stroke-width="0.5"/><text x="1278" y="467" font-size="8" fill="#888780" font-family="Arial" font-weight="normal" text-anchor="start">ⓘ  마이페이지 → 설정에서 언제든 변경 가능해요.</text><rect x="1270" y="560" width="220" height="36" rx="10" fill="#534AB7"/><text x="1380.0" y="582" font-size="12" fill="#FFFFFF" font-family="Arial" font-weight="bold" text-anchor="middle">다음</text>
  <line x1="1514" y1="370.0" x2="1546" y2="370.0" stroke="#534AB7" stroke-width="1.5" marker-end="url(#arr)"/><text x="1680.0" y="86" font-size="9.5" fill="#888780" font-family="Arial" font-weight="normal" text-anchor="middle">Step 5 · 목표 레벨</text>
  <rect x="1550" y="110" width="260" height="520" rx="22" fill="#FFFFFF" stroke="#D3D1C7" stroke-width="1.5"/>
  <rect x="1552" y="110" width="256" height="32" rx="8" fill="#F1EFE8" stroke="#D3D1C7" stroke-width="0.5"/>
  <text x="1680.0" y="130" text-anchor="middle" font-size="10" fill="#888780" font-family="Arial">9:41</text><rect x="1552" y="142" width="256" height="488" rx="14" fill="#FFFFFF"/><text x="1570" y="174" font-size="17" fill="#1a1a1a" font-family="Arial" font-weight="bold" text-anchor="start">목표 레벨을</text><text x="1570" y="194" font-size="17" fill="#1a1a1a" font-family="Arial" font-weight="bold" text-anchor="start">선택해주세요</text><text x="1570" y="214" font-size="9.5" fill="#888780" font-family="Arial" font-weight="normal" text-anchor="start">맞춤 학습 콘텐츠를 추천해드려요.</text><rect x="1570" y="232" width="220" height="50" rx="10" fill="#FFFFFF" stroke="#D3D1C7" stroke-width="0.5"/><text x="1584" y="250" font-size="11" fill="#1a1a1a" font-family="Arial" font-weight="bold" text-anchor="start">TOPIK I  1급</text><text x="1584" y="265" font-size="8.5" fill="#888780" font-family="Arial" font-weight="normal" text-anchor="start">한국어 기초 · 입문</text><circle cx="1776" cy="257" r="8" fill="#FFFFFF" stroke="#D3D1C7" stroke-width="1"/><rect x="1570" y="292" width="220" height="50" rx="10" fill="#EEEDFE" stroke="#534AB7" stroke-width="0.5"/><text x="1584" y="310" font-size="11" fill="#534AB7" font-family="Arial" font-weight="bold" text-anchor="start">TOPIK I  2급</text><text x="1584" y="325" font-size="8.5" fill="#888780" font-family="Arial" font-weight="normal" text-anchor="start">일상 대화 · 기본 문장</text><circle cx="1776" cy="317" r="8" fill="#EEEDFE" stroke="#534AB7" stroke-width="1"/><circle cx="1776" cy="317" r="4" fill="#534AB7"/><rect x="1570" y="352" width="220" height="50" rx="10" fill="#FFFFFF" stroke="#D3D1C7" stroke-width="0.5"/><text x="1584" y="370" font-size="11" fill="#1a1a1a" font-family="Arial" font-weight="bold" text-anchor="start">TOPIK II  3~4급</text><text x="1584" y="385" font-size="8.5" fill="#888780" font-family="Arial" font-weight="normal" text-anchor="start">일반 업무 · 대학 진학</text><circle cx="1776" cy="377" r="8" fill="#FFFFFF" stroke="#D3D1C7" stroke-width="1"/><rect x="1570" y="412" width="220" height="50" rx="10" fill="#FFFFFF" stroke="#D3D1C7" stroke-width="0.5"/><text x="1584" y="430" font-size="11" fill="#1a1a1a" font-family="Arial" font-weight="bold" text-anchor="start">TOPIK II  5~6급</text><text x="1584" y="445" font-size="8.5" fill="#888780" font-family="Arial" font-weight="normal" text-anchor="start">고급 표현 · 전문 한국어</text><circle cx="1776" cy="437" r="8" fill="#FFFFFF" stroke="#D3D1C7" stroke-width="1"/><rect x="1570" y="472" width="220" height="50" rx="10" fill="#FFFFFF" stroke="#D3D1C7" stroke-width="0.5"/><text x="1584" y="490" font-size="11" fill="#1a1a1a" font-family="Arial" font-weight="bold" text-anchor="start">아직 모르겠어요</text><text x="1584" y="505" font-size="8.5" fill="#888780" font-family="Arial" font-weight="normal" text-anchor="start">앱을 먼저 탐색할게요</text><circle cx="1776" cy="497" r="8" fill="#FFFFFF" stroke="#D3D1C7" stroke-width="1"/><text x="1680.0" y="542" font-size="9" fill="#888780" font-family="Arial" font-weight="normal" text-anchor="middle">목표 설정 건너뛰기</text><rect x="1570" y="560" width="220" height="36" rx="10" fill="#534AB7"/><text x="1680.0" y="582" font-size="12" fill="#FFFFFF" font-family="Arial" font-weight="bold" text-anchor="middle">다음</text>
  <line x1="1814" y1="370.0" x2="1846" y2="370.0" stroke="#534AB7" stroke-width="1.5" marker-end="url(#arr)"/><text x="1980.0" y="86" font-size="9.5" fill="#888780" font-family="Arial" font-weight="normal" text-anchor="middle">Step 6 · 설정 완료</text>
  <rect x="1850" y="110" width="260" height="520" rx="22" fill="#FFFFFF" stroke="#D3D1C7" stroke-width="1.5"/>
  <rect x="1852" y="110" width="256" height="32" rx="8" fill="#F1EFE8" stroke="#D3D1C7" stroke-width="0.5"/>
  <text x="1980.0" y="130" text-anchor="middle" font-size="10" fill="#888780" font-family="Arial">9:41</text><rect x="1852" y="142" width="256" height="488" rx="14" fill="#FFFFFF"/><circle cx="1980.0" cy="250" r="44" fill="#EEEDFE"/><text x="1980.0" y="258" font-size="32" fill="#534AB7" font-family="Arial" font-weight="bold" text-anchor="middle">✓</text><text x="1980.0" y="318" font-size="20" fill="#1a1a1a" font-family="Arial" font-weight="bold" text-anchor="middle">준비 완료!</text><text x="1980.0" y="338" font-size="10" fill="#888780" font-family="Arial" font-weight="normal" text-anchor="middle">맞춤 학습을 시작할게요.</text><rect x="1870" y="364" width="220" height="76" rx="10" fill="#F1EFE8" stroke="#D3D1C7" stroke-width="0.5"/><text x="1884" y="380" font-size="8" fill="#888780" font-family="Arial" font-weight="bold" text-anchor="start">설정 요약</text><line x1="1870" y1="392" x2="2090" y2="392" stroke="#D3D1C7" stroke-width="0.5"/><text x="1884" y="408" font-size="9" fill="#888780" font-family="Arial" font-weight="normal" text-anchor="start">언어</text><text x="2076" y="408" font-size="9" fill="#1a1a1a" font-family="Arial" font-weight="bold" text-anchor="end">🇻🇳  Tiếng Việt</text><text x="1884" y="426" font-size="9" fill="#888780" font-family="Arial" font-weight="normal" text-anchor="start">목표 레벨</text><text x="2076" y="426" font-size="9" fill="#534AB7" font-family="Arial" font-weight="bold" text-anchor="end">TOPIK I  2급</text><rect x="1870" y="460" width="220" height="38" rx="10" fill="#534AB7"/><text x="1980.0" y="483" font-size="12" fill="#FFFFFF" font-family="Arial" font-weight="bold" text-anchor="middle">대시보드로 이동</text><text x="1980.0" y="518" font-size="9" fill="#888780" font-family="Arial" font-weight="normal" text-anchor="middle">로그인 / 회원가입</text><line x1="1936.0" y1="519" x2="1978.0" y2="519" stroke="#D3D1C7" stroke-width="0.5"/><line x1="1982.0" y1="519" x2="2024.0" y2="519" stroke="#D3D1C7" stroke-width="0.5"/>
</svg>