<svg width="660" height="720" xmlns="http://www.w3.org/2000/svg">
<defs>
  <marker id="arr" viewBox="0 0 10 10" refX="8" refY="5"
    markerWidth="6" markerHeight="6" orient="auto-start-reverse">
    <path d="M2 1L8 5L2 9" fill="none" stroke="#534AB7" stroke-width="1.5"
      stroke-linecap="round" stroke-linejoin="round"/>
  </marker>
</defs>
<rect width="660" height="720" fill="#F1EFE8"/>
<text x="330.0" y="40" text-anchor="middle" font-size="14" fill="#26215C"
  font-family="Arial" font-weight="bold">TOPIK 문제은행 앱 — 로그인 · 회원가입</text>
<text x="180.0" y="86" font-size="9.5" fill="#888780" font-family="Arial" font-weight="normal" text-anchor="middle">로그인</text>
  <rect x="50" y="110" width="260" height="520" rx="22" fill="#FFFFFF" stroke="#D3D1C7" stroke-width="1.5"/>
  <rect x="52" y="110" width="256" height="32" rx="8" fill="#F1EFE8" stroke="#D3D1C7" stroke-width="0.5"/>
  <text x="180.0" y="130" text-anchor="middle" font-size="10" fill="#888780" font-family="Arial">9:41</text><rect x="52" y="142" width="256" height="488" rx="14" fill="#FFFFFF"/><text x="180.0" y="188" font-size="22" fill="#26215C" font-family="Arial" font-weight="bold" text-anchor="middle">TOPIK</text><text x="180.0" y="206" font-size="9" fill="#888780" font-family="Arial" font-weight="normal" text-anchor="middle">한국어능력시험 문제은행</text><rect x="70" y="234" width="220" height="38" rx="10" fill="#F8F7F4" stroke="#D3D1C7" stroke-width="0.5"/><circle cx="90" cy="253" r="9" fill="#FFFFFF" stroke="#D3D1C7" stroke-width="0.5"/><text x="90" y="257" font-size="8" fill="#555555" font-family="Arial" font-weight="bold" text-anchor="middle">G</text><text x="186.0" y="257" font-size="10" fill="#363636" font-family="Arial" font-weight="normal" text-anchor="middle">Google로 계속하기</text><rect x="70" y="280" width="220" height="38" rx="10" fill="#F8F7F4" stroke="#D3D1C7" stroke-width="0.5"/><circle cx="90" cy="299" r="9" fill="#FFFFFF" stroke="#D3D1C7" stroke-width="0.5"/><text x="90" y="303" font-size="8" fill="#555555" font-family="Arial" font-weight="bold" text-anchor="middle">A</text><text x="186.0" y="303" font-size="10" fill="#363636" font-family="Arial" font-weight="normal" text-anchor="middle">Apple로 계속하기</text><line x1="70" y1="334" x2="156.0" y2="334" stroke="#D3D1C7" stroke-width="0.5"/><line x1="204.0" y1="334" x2="290" y2="334" stroke="#D3D1C7" stroke-width="0.5"/><text x="180.0" y="338" font-size="8.5" fill="#888780" font-family="Arial" font-weight="normal" text-anchor="middle">또는 이메일로</text><rect x="70" y="354" width="220" height="36" rx="8" fill="#F8F7F4" stroke="#D3D1C7" stroke-width="0.5"/><text x="82" y="376" font-size="10" fill="#888780" font-family="Arial" font-weight="normal" text-anchor="start">이메일</text><rect x="70" y="398" width="220" height="36" rx="8" fill="#FFFFFF" stroke="#534AB7" stroke-width="0.5"/><text x="82" y="420" font-size="10" fill="#B4B2A9" font-family="Arial" font-weight="normal" text-anchor="start">비밀번호</text><text x="290" y="418" font-size="8.5" fill="#888780" font-family="Arial" font-weight="normal" text-anchor="end">비밀번호 찾기</text><line x1="220" y1="419" x2="290" y2="419" stroke="#888780" stroke-width="0.4"/><rect x="70" y="434" width="220" height="38" rx="10" fill="#534AB7"/><text x="180.0" y="457" font-size="12" fill="#FFFFFF" font-family="Arial" font-weight="bold" text-anchor="middle">로그인</text><line x1="70" y1="490" x2="290" y2="490" stroke="#D3D1C7" stroke-width="0.5"/><text x="180.0" y="508" font-size="9.5" fill="#888780" font-family="Arial" font-weight="normal" text-anchor="middle">계정이 없으신가요?  </text><text x="213.6" y="508" font-size="9.5" fill="#534AB7" font-family="Arial" font-weight="bold" text-anchor="start">회원가입</text><line x1="213.6" y1="510" x2="235.6" y2="510" stroke="#534AB7" stroke-width="0.5"/><text x="180.0" y="550" font-size="7.5" fill="#888780" font-family="Arial" font-weight="normal" text-anchor="middle">로그인 시 이용약관 및 개인정보처리방침에 동의합니다.</text>
  <line x1="314" y1="370.0" x2="346" y2="370.0" stroke="#534AB7" stroke-width="1.5" marker-end="url(#arr)"/><text x="330.0" y="362.0" font-size="8.5" fill="#888780" font-family="Arial" font-weight="normal" text-anchor="middle">회원가입</text><text x="480.0" y="86" font-size="9.5" fill="#888780" font-family="Arial" font-weight="normal" text-anchor="middle">회원가입</text>
  <rect x="350" y="110" width="260" height="520" rx="22" fill="#FFFFFF" stroke="#D3D1C7" stroke-width="1.5"/>
  <rect x="352" y="110" width="256" height="32" rx="8" fill="#F1EFE8" stroke="#D3D1C7" stroke-width="0.5"/>
  <text x="480.0" y="130" text-anchor="middle" font-size="10" fill="#888780" font-family="Arial">9:41</text><rect x="352" y="142" width="256" height="488" rx="14" fill="#FFFFFF"/><text x="370" y="170" font-size="17" fill="#1a1a1a" font-family="Arial" font-weight="bold" text-anchor="start">계정 만들기</text><text x="370" y="190" font-size="10" fill="#888780" font-family="Arial" font-weight="normal" text-anchor="start">TOPIK 학습을 시작해요.</text><rect x="370" y="214" width="220" height="38" rx="10" fill="#F8F7F4" stroke="#D3D1C7" stroke-width="0.5"/><circle cx="390" cy="233" r="9" fill="#FFFFFF" stroke="#D3D1C7" stroke-width="0.5"/><text x="390" y="237" font-size="8" fill="#555555" font-family="Arial" font-weight="bold" text-anchor="middle">G</text><text x="486.0" y="237" font-size="10" fill="#363636" font-family="Arial" font-weight="normal" text-anchor="middle">Google로 가입하기</text><rect x="370" y="260" width="220" height="38" rx="10" fill="#F8F7F4" stroke="#D3D1C7" stroke-width="0.5"/><circle cx="390" cy="279" r="9" fill="#FFFFFF" stroke="#D3D1C7" stroke-width="0.5"/><text x="390" y="283" font-size="8" fill="#555555" font-family="Arial" font-weight="bold" text-anchor="middle">A</text><text x="486.0" y="283" font-size="10" fill="#363636" font-family="Arial" font-weight="normal" text-anchor="middle">Apple로 가입하기</text><line x1="370" y1="314" x2="456.0" y2="314" stroke="#D3D1C7" stroke-width="0.5"/><line x1="504.0" y1="314" x2="590" y2="314" stroke="#D3D1C7" stroke-width="0.5"/><text x="480.0" y="318" font-size="8.5" fill="#888780" font-family="Arial" font-weight="normal" text-anchor="middle">또는 이메일로</text><rect x="370" y="334" width="220" height="36" rx="8" fill="#F8F7F4" stroke="#D3D1C7" stroke-width="0.5"/><text x="382" y="356" font-size="10" fill="#888780" font-family="Arial" font-weight="normal" text-anchor="start">이름</text><rect x="370" y="378" width="220" height="36" rx="8" fill="#F8F7F4" stroke="#D3D1C7" stroke-width="0.5"/><text x="382" y="400" font-size="10" fill="#888780" font-family="Arial" font-weight="normal" text-anchor="start">이메일</text><rect x="370" y="422" width="220" height="36" rx="8" fill="#FFFFFF" stroke="#534AB7" stroke-width="0.5"/><text x="382" y="444" font-size="10" fill="#B4B2A9" font-family="Arial" font-weight="normal" text-anchor="start">비밀번호 (8자 이상)</text><rect x="370" y="470" width="220" height="38" rx="10" fill="#534AB7"/><text x="480.0" y="493" font-size="12" fill="#FFFFFF" font-family="Arial" font-weight="bold" text-anchor="middle">회원가입</text><text x="480.0" y="518" font-size="7.5" fill="#888780" font-family="Arial" font-weight="normal" text-anchor="middle">가입 시 이용약관 및</text><text x="480.0" y="530" font-size="7.5" fill="#888780" font-family="Arial" font-weight="normal" text-anchor="middle">개인정보처리방침에 동의하는 것으로 간주합니다.</text><line x1="370" y1="548" x2="590" y2="548" stroke="#D3D1C7" stroke-width="0.5"/><text x="480.0" y="566" font-size="9.5" fill="#888780" font-family="Arial" font-weight="normal" text-anchor="middle">이미 계정이 있으신가요?  </text><text x="522.0" y="566" font-size="9.5" fill="#534AB7" font-family="Arial" font-weight="bold" text-anchor="start">로그인</text><line x1="522.0" y1="568" x2="538.5" y2="568" stroke="#534AB7" stroke-width="0.5"/>
</svg>