<svg width="280" height="564" xmlns="http://www.w3.org/2000/svg"><rect width="280" height="564" fill="#F8F7F4"/><rect x="4" y="4" width="272" height="560" rx="20" fill="white" stroke="#D3D1C7" stroke-width="0.5"/><rect x="6" y="4" width="268" height="32" rx="8" fill="#F1EFE8" stroke="#D3D1C7" stroke-width="0.5"/><text x="140" y="24" font-size="9" fill="#888780" font-family="Arial" font-weight="normal" text-anchor="middle">9:41</text><rect x="6" y="40" width="268" height="42" rx="0" fill="white" stroke="#D3D1C7" stroke-width="0.5"/><text x="18" y="57" font-size="11" fill="#363636" font-family="Arial" font-weight="bold" text-anchor="start">안녕하세요, Jaeseok님</text><text x="18" y="71" font-size="8" fill="#0F6E56" font-family="Arial" font-weight="normal" text-anchor="start">듣기 유형, 오늘 잡으면 한 계단 올라가요</text><text x="18" y="96" font-size="7" fill="#888780" font-family="Arial" font-weight="normal" text-anchor="start">시험 목표</text><rect x="14" y="102" width="252" height="66" rx="6" fill="#F1EFE8" stroke="#D3D1C7" stroke-width="0.5"/><text x="24" y="118" font-size="10" fill="#363636" font-family="Arial" font-weight="bold" text-anchor="start">TOPIK I · 2025년 10월 시험</text><text x="24" y="132" font-size="8" fill="#888780" font-family="Arial" font-weight="normal" text-anchor="start">목표 점수 140점 이상</text><rect x="24" y="142" width="140" height="4" rx="2" fill="#D3D1C7"/><rect x="24" y="142" width="87" height="4" rx="2" fill="#534AB7"/><text x="24" y="154" font-size="7" fill="#888780" font-family="Arial" font-weight="normal" text-anchor="start">진행률 62%</text><rect x="188" y="106" width="72" height="52" rx="8" fill="#EEEDFE" stroke="#534AB7" stroke-width="0.5"/><text x="224" y="130" font-size="20" fill="#534AB7" font-family="Arial" font-weight="bold" text-anchor="middle">D-42</text><text x="224" y="150" font-size="7" fill="#888780" font-family="Arial" font-weight="normal" text-anchor="middle">남은 날</text><text x="18" y="182" font-size="7" fill="#888780" font-family="Arial" font-weight="normal" text-anchor="start">오늘의 추천학습</text><rect x="14" y="190" width="252" height="60" rx="6" fill="#E1F5EE" stroke="#9FE1CB" stroke-width="0.5"/><text x="24" y="204" font-size="7.5" fill="#0F6E56" font-family="Arial" font-weight="normal" text-anchor="start">대화 듣기 정답률 58% — 가장 취약한 유형이에요</text><text x="24" y="219" font-size="11" fill="#085041" font-family="Arial" font-weight="bold" text-anchor="start">102회 듣기 · 대화 유형 집중</text><rect x="24" y="225" width="72" height="24" rx="20" fill="white" stroke="#5DCAA5" stroke-width="0.5"/><text x="60" y="240" font-size="7.5" fill="#085041" font-family="Arial" font-weight="normal" text-anchor="middle">바로 풀기</text><text x="18" y="260" font-size="7" fill="#888780" font-family="Arial" font-weight="normal" text-anchor="start">학습 스트릭</text><rect x="14" y="268" width="252" height="58" rx="6" fill="#F1EFE8" stroke="#D3D1C7" stroke-width="0.5"/><text x="24" y="282" font-size="9" fill="#363636" font-family="Arial" font-weight="bold" text-anchor="start">이번 주 학습</text><rect x="172" y="274" width="80" height="16" rx="20" fill="#E1F5EE" stroke="#0F6E56" stroke-width="0.5"/><text x="212" y="284.4" font-size="7" fill="#085041" font-family="Arial" font-weight="normal" text-anchor="middle">12일 연속 중</text><circle cx="28" cy="304" r="12" fill="#0F6E56"/><text x="28" y="322" font-size="7" fill="#888780" font-family="Arial" font-weight="normal" text-anchor="middle">월</text><circle cx="60" cy="304" r="12" fill="#0F6E56"/><text x="60" y="322" font-size="7" fill="#888780" font-family="Arial" font-weight="normal" text-anchor="middle">화</text><circle cx="92" cy="304" r="12" fill="#0F6E56"/><text x="92" y="322" font-size="7" fill="#888780" font-family="Arial" font-weight="normal" text-anchor="middle">수</text><circle cx="124" cy="304" r="12" fill="#0F6E56"/><text x="124" y="322" font-size="7" fill="#888780" font-family="Arial" font-weight="normal" text-anchor="middle">목</text><circle cx="156" cy="304" r="12" fill="#0F6E56"/><text x="156" y="322" font-size="7" fill="#888780" font-family="Arial" font-weight="normal" text-anchor="middle">금</text><circle cx="188" cy="304" r="12" fill="#0F6E56"/><text x="188" y="322" font-size="7" fill="#888780" font-family="Arial" font-weight="normal" text-anchor="middle">토</text><circle cx="220" cy="304" r="12" fill="#F1EFE8"/><text x="220" y="322" font-size="7" fill="#888780" font-family="Arial" font-weight="normal" text-anchor="middle">일</text><text x="18" y="340" font-size="7" fill="#888780" font-family="Arial" font-weight="normal" text-anchor="start">약점 분석</text><rect x="14" y="348" width="252" height="64" rx="6" fill="white" stroke="#D3D1C7" stroke-width="0.5"/><text x="24" y="364" font-size="9" fill="#363636" font-family="Arial" font-weight="normal" text-anchor="start">듣기가 전체 약점의 중심이에요.</text><text x="24" y="378" font-size="7.5" fill="#363636" font-family="Arial" font-weight="normal" text-anchor="start">특히 대화 유형 실수 잦음 · 읽기는 중심 내용 파악 보완 필요</text><rect x="18" y="390" width="68" height="14" rx="20" fill="#FAECE7" stroke="#993C1D" stroke-width="0.5"/><text x="52" y="399.1" font-size="7" fill="#712B13" font-family="Arial" font-weight="normal" text-anchor="middle">대화 듣기</text><rect x="90" y="390" width="88" height="14" rx="20" fill="#FAECE7" stroke="#993C1D" stroke-width="0.5"/><text x="134" y="399.1" font-size="7" fill="#712B13" font-family="Arial" font-weight="normal" text-anchor="middle">중심 내용 파악</text><rect x="182" y="390" width="56" height="14" rx="20" fill="#E1F5EE" stroke="#0F6E56" stroke-width="0.5"/><text x="210" y="399.1" font-size="7" fill="#085041" font-family="Arial" font-weight="normal" text-anchor="middle">어휘 양호</text><text x="18" y="416" font-size="7" fill="#888780" font-family="Arial" font-weight="normal" text-anchor="start">취약 유형 Top 3</text><circle cx="26" cy="436" r="9" fill="#FAECE7" stroke="#993C1D" stroke-width="0.5"/><text x="26" y="440" font-size="8" fill="#993C1D" font-family="Arial" font-weight="bold" text-anchor="middle">1</text><text x="42" y="440" font-size="9" fill="#363636" font-family="Arial" font-weight="normal" text-anchor="start">대화 듣고 이어질 말 고르기</text><text x="194" y="440" font-size="9" fill="#993C1D" font-family="Arial" font-weight="bold" text-anchor="start">58%</text><rect x="214" y="425" width="48" height="24" rx="20" fill="#E1F5EE" stroke="#0F6E56" stroke-width="0.5"/><text x="238" y="440" font-size="7.5" fill="#085041" font-family="Arial" font-weight="normal" text-anchor="middle">풀기</text><line x1="14" y1="454" x2="266" y2="454" stroke="#D3D1C7" stroke-width="0.5"/><circle cx="26" cy="468" r="9" fill="#FAECE7" stroke="#993C1D" stroke-width="0.5"/><text x="26" y="472" font-size="8" fill="#993C1D" font-family="Arial" font-weight="bold" text-anchor="middle">2</text><text x="42" y="472" font-size="9" fill="#363636" font-family="Arial" font-weight="normal" text-anchor="start">중심 내용 파악하기</text><text x="194" y="472" font-size="9" fill="#993C1D" font-family="Arial" font-weight="bold" text-anchor="start">63%</text><rect x="214" y="457" width="48" height="24" rx="20" fill="#E1F5EE" stroke="#0F6E56" stroke-width="0.5"/><text x="238" y="472" font-size="7.5" fill="#085041" font-family="Arial" font-weight="normal" text-anchor="middle">풀기</text><line x1="14" y1="486" x2="266" y2="486" stroke="#D3D1C7" stroke-width="0.5"/><circle cx="26" cy="500" r="9" fill="#FAECE7" stroke="#993C1D" stroke-width="0.5"/><text x="26" y="504" font-size="8" fill="#993C1D" font-family="Arial" font-weight="bold" text-anchor="middle">3</text><text x="42" y="504" font-size="9" fill="#363636" font-family="Arial" font-weight="normal" text-anchor="start">세부 내용 이해하기</text><text x="194" y="504" font-size="9" fill="#993C1D" font-family="Arial" font-weight="bold" text-anchor="start">67%</text><rect x="214" y="489" width="48" height="24" rx="20" fill="#E1F5EE" stroke="#0F6E56" stroke-width="0.5"/><text x="238" y="504" font-size="7.5" fill="#085041" font-family="Arial" font-weight="normal" text-anchor="middle">풀기</text><rect x="100" y="514" width="80" height="3" rx="1.5" fill="#D3D1C7"/><rect x="6" y="520" width="268" height="44" rx="0" fill="white" stroke="#D3D1C7" stroke-width="0.5"/><rect x="10" y="524" width="59" height="20" rx="4" fill="#534AB7"/><text x="39.5" y="558" font-size="7" fill="#534AB7" font-family="Arial" font-weight="bold" text-anchor="middle">대시보드</text><rect x="77" y="524" width="59" height="20" rx="4" fill="#F1EFE8"/><text x="106.5" y="558" font-size="7" fill="#888780" font-family="Arial" font-weight="normal" text-anchor="middle">기출문제</text><rect x="144" y="524" width="59" height="20" rx="4" fill="#F1EFE8"/><text x="173.5" y="558" font-size="7" fill="#888780" font-family="Arial" font-weight="normal" text-anchor="middle">연습문제</text><rect x="211" y="524" width="59" height="20" rx="4" fill="#F1EFE8"/><text x="240.5" y="558" font-size="7" fill="#888780" font-family="Arial" font-weight="normal" text-anchor="middle">마이페이지</text></svg>