<svg width="580" height="564" xmlns="http://www.w3.org/2000/svg"><rect width="580" height="564" fill="#F8F7F4"/><rect x="4" y="4" width="272" height="560" rx="20" fill="white" stroke="#D3D1C7" stroke-width="0.5"/><rect x="6" y="4" width="268" height="32" rx="8" fill="#F1EFE8" stroke="#D3D1C7" stroke-width="0.5"/><text x="140" y="24" font-size="9" fill="#888780" font-family="Arial" font-weight="normal" text-anchor="middle">9:41</text><rect x="6" y="40" width="268" height="36" rx="0" fill="white" stroke="#D3D1C7" stroke-width="0.5"/><text x="18" y="62" font-size="13" fill="#363636" font-family="Arial" font-weight="bold" text-anchor="start">기출문제</text><text x="18" y="92" font-size="7" fill="#888780" font-family="Arial" font-weight="normal" text-anchor="start">어떻게 풀까요?</text><rect x="14" y="100" width="252" height="100" rx="8" fill="#EEEDFE" stroke="#534AB7" stroke-width="0.5"/><text x="24" y="118" font-size="11" fill="#534AB7" font-family="Arial" font-weight="bold" text-anchor="start">유형 선택풀기</text><text x="24" y="134" font-size="8.5" fill="#534AB7" font-family="Arial" font-weight="normal" text-anchor="start">등급, 영역, 유형을 골라</text><text x="24" y="148" font-size="8.5" fill="#534AB7" font-family="Arial" font-weight="normal" text-anchor="start">원하는 문제만 집중 풀기</text><rect x="16" y="162" width="68" height="16" rx="20" fill="#EEEDFE" stroke="#534AB7" stroke-width="0.5"/><text x="50" y="172.4" font-size="7.5" fill="#3C3489" font-family="Arial" font-weight="normal" text-anchor="middle">등급 선택</text><rect x="88" y="162" width="68" height="16" rx="20" fill="#EEEDFE" stroke="#534AB7" stroke-width="0.5"/><text x="122" y="172.4" font-size="7.5" fill="#3C3489" font-family="Arial" font-weight="normal" text-anchor="middle">영역 선택</text><rect x="160" y="162" width="68" height="16" rx="20" fill="#EEEDFE" stroke="#534AB7" stroke-width="0.5"/><text x="194" y="172.4" font-size="7.5" fill="#3C3489" font-family="Arial" font-weight="normal" text-anchor="middle">유형 선택</text><rect x="14" y="208" width="252" height="100" rx="8" fill="white" stroke="#D3D1C7" stroke-width="0.5"/><text x="24" y="226" font-size="11" fill="#363636" font-family="Arial" font-weight="bold" text-anchor="start">실전모드</text><text x="24" y="242" font-size="8.5" fill="#888780" font-family="Arial" font-weight="normal" text-anchor="start">실제 시험처럼 타이머를 켜고</text><text x="24" y="256" font-size="8.5" fill="#888780" font-family="Arial" font-weight="normal" text-anchor="start">전체 문제를 순서대로 풀기</text><rect x="16" y="264" width="68" height="16" rx="20" fill="#F1EFE8" stroke="#D3D1C7" stroke-width="0.5"/><text x="50" y="274.4" font-size="7.5" fill="#888780" font-family="Arial" font-weight="normal" text-anchor="middle">회차 선택</text><rect x="88" y="264" width="56" height="16" rx="20" fill="#F1EFE8" stroke="#D3D1C7" stroke-width="0.5"/><text x="116" y="274.4" font-size="7.5" fill="#888780" font-family="Arial" font-weight="normal" text-anchor="middle">타이머</text><rect x="148" y="264" width="68" height="16" rx="20" fill="#F1EFE8" stroke="#D3D1C7" stroke-width="0.5"/><text x="182" y="274.4" font-size="7.5" fill="#888780" font-family="Arial" font-weight="normal" text-anchor="middle">전체 문항</text><rect x="14" y="432" width="252" height="36" rx="8" fill="#534AB7" stroke="#534AB7" stroke-width="0.5"/><text x="140" y="455" font-size="11" fill="white" font-family="Arial" font-weight="bold" text-anchor="middle">유형 선택풀기 시작</text><rect x="6" y="520" width="268" height="44" rx="0" fill="white" stroke="#D3D1C7" stroke-width="0.5"/><rect x="10" y="524" width="59" height="20" rx="4" fill="#F1EFE8"/><text x="39.5" y="558" font-size="7" fill="#888780" font-family="Arial" font-weight="normal" text-anchor="middle">대시보드</text><rect x="77" y="524" width="59" height="20" rx="4" fill="#534AB7"/><text x="106.5" y="558" font-size="7" fill="#534AB7" font-family="Arial" font-weight="bold" text-anchor="middle">기출문제</text><rect x="144" y="524" width="59" height="20" rx="4" fill="#F1EFE8"/><text x="173.5" y="558" font-size="7" fill="#888780" font-family="Arial" font-weight="normal" text-anchor="middle">연습문제</text><rect x="211" y="524" width="59" height="20" rx="4" fill="#F1EFE8"/><text x="240.5" y="558" font-size="7" fill="#888780" font-family="Arial" font-weight="normal" text-anchor="middle">마이페이지</text><rect x="304" y="4" width="272" height="560" rx="20" fill="white" stroke="#D3D1C7" stroke-width="0.5"/><rect x="306" y="4" width="268" height="32" rx="8" fill="#F1EFE8" stroke="#D3D1C7" stroke-width="0.5"/><text x="440" y="24" font-size="9" fill="#888780" font-family="Arial" font-weight="normal" text-anchor="middle">9:41</text><rect x="306" y="40" width="268" height="36" rx="0" fill="white" stroke="#D3D1C7" stroke-width="0.5"/><text x="318" y="62" font-size="13" fill="#363636" font-family="Arial" font-weight="bold" text-anchor="start">유형 선택풀기</text><text x="318" y="90" font-size="7" fill="#888780" font-family="Arial" font-weight="normal" text-anchor="start">등급</text><rect x="314" y="96" width="150" height="20" rx="20" fill="#534AB7" stroke="#534AB7" stroke-width="0.5"/><text x="389" y="109" font-size="9" fill="white" font-family="Arial" font-weight="normal" text-anchor="middle">TOPIK I (1~2급)</text><rect x="468" y="96" width="96" height="20" rx="20" fill="white" stroke="#D3D1C7" stroke-width="0.5"/><text x="516" y="109" font-size="8" fill="#888780" font-family="Arial" font-weight="normal" text-anchor="middle">TOPIK II (3~6급)</text><line x1="314" y1="124" x2="566" y2="124" stroke="#D3D1C7" stroke-width="0.5"/><text x="318" y="136" font-size="7" fill="#888780" font-family="Arial" font-weight="normal" text-anchor="start">영역</text><rect x="314" y="142" width="120" height="46" rx="8" fill="#EEEDFE" stroke="#534AB7" stroke-width="0.5"/><text x="374" y="160" font-size="10" fill="#3C3489" font-family="Arial" font-weight="bold" text-anchor="middle">듣기</text><text x="374" y="174" font-size="7" fill="#534AB7" font-family="Arial" font-weight="normal" text-anchor="middle">전체 회차 포함</text><rect x="438" y="142" width="120" height="46" rx="8" fill="white" stroke="#D3D1C7" stroke-width="0.5"/><text x="498" y="160" font-size="10" fill="#363636" font-family="Arial" font-weight="bold" text-anchor="middle">읽기</text><text x="498" y="174" font-size="7" fill="#888780" font-family="Arial" font-weight="normal" text-anchor="middle">전체 회차 포함</text><line x1="314" y1="196" x2="566" y2="196" stroke="#D3D1C7" stroke-width="0.5"/><text x="318" y="208" font-size="7" fill="#888780" font-family="Arial" font-weight="normal" text-anchor="start">문항 유형 · 듣기 기준</text><rect x="314" y="216" width="16" height="16" rx="3" fill="#534AB7" stroke="#534AB7" stroke-width="0.5"/><text x="322" y="228" font-size="10" fill="white" font-family="Arial" font-weight="bold" text-anchor="middle">✓</text><text x="336" y="228" font-size="9.5" fill="#363636" font-family="Arial" font-weight="normal" text-anchor="start">대화 듣고 이어질 말 고르기</text><line x1="314" y1="242" x2="566" y2="242" stroke="#D3D1C7" stroke-width="0.5"/><rect x="314" y="246" width="16" height="16" rx="3" fill="#534AB7" stroke="#534AB7" stroke-width="0.5"/><text x="322" y="258" font-size="10" fill="white" font-family="Arial" font-weight="bold" text-anchor="middle">✓</text><text x="336" y="258" font-size="9.5" fill="#363636" font-family="Arial" font-weight="normal" text-anchor="start">내용 일치 고르기</text><line x1="314" y1="272" x2="566" y2="272" stroke="#D3D1C7" stroke-width="0.5"/><rect x="314" y="276" width="16" height="16" rx="3" fill="white" stroke="#D3D1C7" stroke-width="0.5"/><text x="336" y="288" font-size="9.5" fill="#363636" font-family="Arial" font-weight="normal" text-anchor="start">중심 내용 파악</text><line x1="314" y1="302" x2="566" y2="302" stroke="#D3D1C7" stroke-width="0.5"/><rect x="314" y="306" width="16" height="16" rx="3" fill="white" stroke="#D3D1C7" stroke-width="0.5"/><text x="336" y="318" font-size="9.5" fill="#363636" font-family="Arial" font-weight="normal" text-anchor="start">세부 내용 이해</text><rect x="314" y="356" width="252" height="26" rx="6" fill="#F1EFE8" stroke="#D3D1C7" stroke-width="0.5"/><text x="322" y="373" font-size="8" fill="#888780" font-family="Arial" font-weight="normal" text-anchor="start">선택된 유형 2개</text><text x="558" y="373" font-size="9" fill="#363636" font-family="Arial" font-weight="bold" text-anchor="end">약 80문항</text><rect x="314" y="390" width="252" height="36" rx="8" fill="#534AB7" stroke="#534AB7" stroke-width="0.5"/><text x="440" y="413" font-size="11" fill="white" font-family="Arial" font-weight="bold" text-anchor="middle">풀기 시작</text><rect x="306" y="520" width="268" height="44" rx="0" fill="white" stroke="#D3D1C7" stroke-width="0.5"/><rect x="310" y="524" width="59" height="20" rx="4" fill="#F1EFE8"/><text x="339.5" y="558" font-size="7" fill="#888780" font-family="Arial" font-weight="normal" text-anchor="middle">대시보드</text><rect x="377" y="524" width="59" height="20" rx="4" fill="#534AB7"/><text x="406.5" y="558" font-size="7" fill="#534AB7" font-family="Arial" font-weight="bold" text-anchor="middle">기출문제</text><rect x="444" y="524" width="59" height="20" rx="4" fill="#F1EFE8"/><text x="473.5" y="558" font-size="7" fill="#888780" font-family="Arial" font-weight="normal" text-anchor="middle">연습문제</text><rect x="511" y="524" width="59" height="20" rx="4" fill="#F1EFE8"/><text x="540.5" y="558" font-size="7" fill="#888780" font-family="Arial" font-weight="normal" text-anchor="middle">마이페이지</text></svg>