<svg width="660" height="720" xmlns="http://www.w3.org/2000/svg">
<defs>
  <marker id="arr" viewBox="0 0 10 10" refX="8" refY="5"
    markerWidth="6" markerHeight="6" orient="auto-start-reverse">
    <path d="M2 1L8 5L2 9" fill="none" stroke="#534AB7" stroke-width="1.5"
      stroke-linecap="round" stroke-linejoin="round"/>
  </marker>
</defs>
<rect width="660" height="720" fill="#F1EFE8"/>
<text x="330.0" y="40" text-anchor="middle" font-size="14" fill="#26215C"
  font-family="Arial" font-weight="bold">TOPIK 문제은행 앱 — 실전모드 회차 선택</text>
<text x="180.0" y="86" font-size="9.5" fill="#888780" font-family="Arial" font-weight="normal" text-anchor="middle">실전모드 조회</text>
  <rect x="50" y="110" width="260" height="520" rx="22" fill="#FFFFFF" stroke="#D3D1C7" stroke-width="1.5"/>
  <rect x="52" y="110" width="256" height="32" rx="8" fill="#F1EFE8" stroke="#D3D1C7" stroke-width="0.5"/>
  <text x="180.0" y="130" text-anchor="middle" font-size="10" fill="#888780" font-family="Arial">9:41</text><rect x="52" y="142" width="256" height="488" rx="14" fill="#FFFFFF"/><rect x="52" y="142" width="256" height="28" rx="0" fill="#F1EFE8"/><text x="64" y="160" font-size="9" fill="#888780" font-family="Arial" font-weight="normal" text-anchor="start">← 기출문제</text><text x="180.0" y="160" font-size="11" fill="#1a1a1a" font-family="Arial" font-weight="bold" text-anchor="middle">실전모드</text><rect x="52" y="170" width="256" height="30" rx="0" fill="#EEEDFE"/><text x="180.0" y="189" font-size="9" fill="#534AB7" font-family="Arial" font-weight="bold" text-anchor="middle">102회  TOPIK I  실전모드</text><text x="64" y="216" font-size="8" fill="#888780" font-family="Arial" font-weight="normal" text-anchor="start">회차</text><rect x="64" y="226" width="38" height="20" rx="20" fill="#534AB7" stroke="#534AB7" stroke-width="0.5"/><text x="83" y="240" font-size="8" fill="#FFFFFF" font-family="Arial" font-weight="bold" text-anchor="middle">102회</text><rect x="108" y="226" width="38" height="20" rx="20" fill="#FFFFFF" stroke="#D3D1C7" stroke-width="0.5"/><text x="127" y="240" font-size="8" fill="#1a1a1a" font-family="Arial" font-weight="normal" text-anchor="middle">101회</text><rect x="152" y="226" width="38" height="20" rx="20" fill="#FFFFFF" stroke="#D3D1C7" stroke-width="0.5"/><text x="171" y="240" font-size="8" fill="#1a1a1a" font-family="Arial" font-weight="normal" text-anchor="middle">100회</text><rect x="196" y="226" width="38" height="20" rx="20" fill="#FFFFFF" stroke="#D3D1C7" stroke-width="0.5"/><text x="215" y="240" font-size="8" fill="#1a1a1a" font-family="Arial" font-weight="normal" text-anchor="middle">99회</text><rect x="240" y="226" width="38" height="20" rx="20" fill="#FFFFFF" stroke="#D3D1C7" stroke-width="0.5"/><text x="259" y="240" font-size="8" fill="#1a1a1a" font-family="Arial" font-weight="normal" text-anchor="middle">98회</text><rect x="64" y="252" width="76" height="20" rx="20" fill="#F8F7F4" stroke="#D3D1C7" stroke-width="0.5"/><text x="102" y="266" font-size="8" fill="#888780" font-family="Arial" font-weight="normal" text-anchor="middle">전체 회차  ›</text><line x1="64" y1="280" x2="296" y2="280" stroke="#D3D1C7" stroke-width="0.5"/><text x="64" y="290" font-size="8" fill="#888780" font-family="Arial" font-weight="normal" text-anchor="start">등급</text><rect x="64" y="300" width="108" height="24" rx="20" fill="#534AB7"/><text x="118" y="316" font-size="8.5" fill="#FFFFFF" font-family="Arial" font-weight="bold" text-anchor="middle">TOPIK I (1~2급)</text><rect x="178" y="300" width="108" height="24" rx="20" fill="#FFFFFF" stroke="#D3D1C7" stroke-width="0.5"/><text x="232" y="316" font-size="8.5" fill="#888780" font-family="Arial" font-weight="normal" text-anchor="middle">TOPIK II (3~6급)</text><line x1="64" y1="332" x2="296" y2="332" stroke="#D3D1C7" stroke-width="0.5"/><text x="64" y="342" font-size="8" fill="#888780" font-family="Arial" font-weight="normal" text-anchor="start">시험 구성</text><rect x="64" y="352" width="232" height="50" rx="8" fill="#F8F7F4" stroke="#D3D1C7" stroke-width="0.5"/><text x="74" y="370" font-size="9" fill="#888780" font-family="Arial" font-weight="normal" text-anchor="start">듣기</text><text x="286" y="370" font-size="9" fill="#1a1a1a" font-family="Arial" font-weight="normal" text-anchor="end">30문항 · 40분</text><line x1="70" y1="378" x2="290" y2="378" stroke="#D3D1C7" stroke-width="0.5"/><text x="74" y="392" font-size="9" fill="#888780" font-family="Arial" font-weight="normal" text-anchor="start">읽기</text><text x="286" y="392" font-size="9" fill="#1a1a1a" font-family="Arial" font-weight="normal" text-anchor="end">40문항 · 60분</text><line x1="64" y1="410" x2="296" y2="410" stroke="#D3D1C7" stroke-width="0.5"/><text x="64" y="420" font-size="8" fill="#888780" font-family="Arial" font-weight="normal" text-anchor="start">실전 환경</text><rect x="64" y="430" width="232" height="42" rx="8" fill="#FAEEDA" stroke="#D3D1C7" stroke-width="0.5"/><circle cx="80" cy="451" r="9" fill="#FFFFFF" stroke="#854F0B" stroke-width="1"/><text x="95" y="447" font-size="8.5" fill="#633806" font-family="Arial" font-weight="bold" text-anchor="start">타이머가 자동으로 시작돼요</text><text x="95" y="461" font-size="8" fill="#854F0B" font-family="Arial" font-weight="normal" text-anchor="start">시간 종료 시 자동 제출</text><rect x="64" y="484" width="232" height="36" rx="10" fill="#534AB7"/><text x="180.0" y="506" font-size="12" fill="#FFFFFF" font-family="Arial" font-weight="bold" text-anchor="middle">실전 시작</text><rect x="64" y="528" width="232" height="32" rx="10" fill="#FFFFFF" stroke="#D3D1C7" stroke-width="0.5"/><text x="180.0" y="548" font-size="10" fill="#888780" font-family="Arial" font-weight="normal" text-anchor="middle">선택풀기로 전환</text><line x1="314" y1="370.0" x2="346" y2="370.0" stroke="#534AB7" stroke-width="1.5" marker-end="url(#arr)"/><text x="330.0" y="362.0" font-size="8.5" fill="#888780" font-family="Arial" font-weight="normal" text-anchor="middle">전체 회차 ›</text><text x="480.0" y="86" font-size="9.5" fill="#888780" font-family="Arial" font-weight="normal" text-anchor="middle">전체 회차 선택 (전체화면)</text>
  <rect x="350" y="110" width="260" height="520" rx="22" fill="#FFFFFF" stroke="#D3D1C7" stroke-width="1.5"/>
  <rect x="352" y="110" width="256" height="32" rx="8" fill="#F1EFE8" stroke="#D3D1C7" stroke-width="0.5"/>
  <text x="480.0" y="130" text-anchor="middle" font-size="10" fill="#888780" font-family="Arial">9:41</text><rect x="352" y="142" width="256" height="488" rx="14" fill="#FFFFFF"/><rect x="352" y="142" width="256" height="28" rx="0" fill="#F1EFE8"/><text x="364" y="160" font-size="9" fill="#888780" font-family="Arial" font-weight="normal" text-anchor="start">← 실전모드</text><text x="480.0" y="160" font-size="11" fill="#1a1a1a" font-family="Arial" font-weight="bold" text-anchor="middle">전체 회차</text><rect x="364" y="178" width="232" height="32" rx="8" fill="#F8F7F4" stroke="#D3D1C7" stroke-width="0.5"/><circle cx="380" cy="194" r="7" fill="none" stroke="#888780" stroke-width="1"/><line x1="385" y1="199" x2="389" y2="203" stroke="#888780" stroke-width="1"/><text x="396" y="198" font-size="9" fill="#888780" font-family="Arial" font-weight="normal" text-anchor="start">회차 검색   예: 85회</text><text x="364" y="222" font-size="8" fill="#888780" font-family="Arial" font-weight="bold" text-anchor="start">최근 회차</text><rect x="364" y="232" width="232" height="34" rx="8" fill="#EEEDFE" stroke="#534AB7" stroke-width="0.5"/><text x="376" y="245" font-size="10" fill="#534AB7" font-family="Arial" font-weight="bold" text-anchor="start">102회</text><text x="376" y="258" font-size="8" fill="#534AB7" font-family="Arial" font-weight="normal" text-anchor="start">2024년 10월</text><circle cx="582" cy="249" r="7" fill="#534AB7" stroke="#534AB7" stroke-width="1"/><circle cx="582" cy="249" r="3" fill="#FFFFFF"/><rect x="364" y="272" width="232" height="34" rx="8" fill="#FFFFFF" stroke="#D3D1C7" stroke-width="0.5"/><text x="376" y="285" font-size="10" fill="#1a1a1a" font-family="Arial" font-weight="bold" text-anchor="start">101회</text><text x="376" y="298" font-size="8" fill="#888780" font-family="Arial" font-weight="normal" text-anchor="start">2024년 7월</text><circle cx="582" cy="289" r="7" fill="#FFFFFF" stroke="#D3D1C7" stroke-width="1"/><rect x="364" y="312" width="232" height="34" rx="8" fill="#FFFFFF" stroke="#D3D1C7" stroke-width="0.5"/><text x="376" y="325" font-size="10" fill="#1a1a1a" font-family="Arial" font-weight="bold" text-anchor="start">100회</text><text x="376" y="338" font-size="8" fill="#888780" font-family="Arial" font-weight="normal" text-anchor="start">2024년 4월</text><circle cx="582" cy="329" r="7" fill="#FFFFFF" stroke="#D3D1C7" stroke-width="1"/><line x1="364" y1="358" x2="596" y2="358" stroke="#D3D1C7" stroke-width="0.5"/><text x="364" y="372" font-size="8" fill="#888780" font-family="Arial" font-weight="bold" text-anchor="start">전체 회차 목록</text><text x="376" y="392" font-size="10" fill="#1a1a1a" font-family="Arial" font-weight="normal" text-anchor="start">99회</text><text x="430" y="392" font-size="8.5" fill="#888780" font-family="Arial" font-weight="normal" text-anchor="start">2023년 11월</text><circle cx="582" cy="390" r="6" fill="#FFFFFF" stroke="#D3D1C7" stroke-width="1"/><line x1="370" y1="402" x2="590" y2="402" stroke="#D3D1C7" stroke-width="0.5"/><text x="376" y="422" font-size="10" fill="#1a1a1a" font-family="Arial" font-weight="normal" text-anchor="start">98회</text><text x="430" y="422" font-size="8.5" fill="#888780" font-family="Arial" font-weight="normal" text-anchor="start">2023년 10월</text><circle cx="582" cy="420" r="6" fill="#FFFFFF" stroke="#D3D1C7" stroke-width="1"/><line x1="370" y1="432" x2="590" y2="432" stroke="#D3D1C7" stroke-width="0.5"/><text x="376" y="452" font-size="10" fill="#1a1a1a" font-family="Arial" font-weight="normal" text-anchor="start">97회</text><text x="430" y="452" font-size="8.5" fill="#888780" font-family="Arial" font-weight="normal" text-anchor="start">2023년 7월</text><circle cx="582" cy="450" r="6" fill="#FFFFFF" stroke="#D3D1C7" stroke-width="1"/><line x1="370" y1="462" x2="590" y2="462" stroke="#D3D1C7" stroke-width="0.5"/><text x="376" y="482" font-size="10" fill="#1a1a1a" font-family="Arial" font-weight="normal" text-anchor="start">96회</text><text x="430" y="482" font-size="8.5" fill="#888780" font-family="Arial" font-weight="normal" text-anchor="start">2023년 4월</text><circle cx="582" cy="480" r="6" fill="#FFFFFF" stroke="#D3D1C7" stroke-width="1"/><line x1="370" y1="492" x2="590" y2="492" stroke="#D3D1C7" stroke-width="0.5"/><text x="376" y="512" font-size="10" fill="#1a1a1a" font-family="Arial" font-weight="normal" text-anchor="start">95회</text><text x="430" y="512" font-size="8.5" fill="#888780" font-family="Arial" font-weight="normal" text-anchor="start">2022년 11월</text><circle cx="582" cy="510" r="6" fill="#FFFFFF" stroke="#D3D1C7" stroke-width="1"/><line x1="370" y1="522" x2="590" y2="522" stroke="#D3D1C7" stroke-width="0.5"/><text x="376" y="542" font-size="10" fill="#1a1a1a" font-family="Arial" font-weight="normal" text-anchor="start">88회</text><text x="430" y="542" font-size="8.5" fill="#888780" font-family="Arial" font-weight="normal" text-anchor="start">2021년 4월</text><circle cx="582" cy="540" r="6" fill="#FFFFFF" stroke="#D3D1C7" stroke-width="1"/><text x="480.0" y="572" font-size="10" fill="#888780" font-family="Arial" font-weight="normal" text-anchor="middle">· · ·</text><rect x="352" y="578" width="256" height="2" rx="0" fill="#F1EFE8"/><rect x="364" y="586" width="232" height="34" rx="10" fill="#534AB7"/><text x="480.0" y="607" font-size="11" fill="#FFFFFF" font-family="Arial" font-weight="bold" text-anchor="middle">102회 선택</text>
</svg>