<svg width="580" height="564" xmlns="http://www.w3.org/2000/svg"><rect width="580" height="564" fill="#F8F7F4"/><rect x="4" y="4" width="272" height="560" rx="20" fill="white" stroke="#D3D1C7" stroke-width="0.5"/><rect x="6" y="4" width="268" height="32" rx="8" fill="#F1EFE8" stroke="#D3D1C7" stroke-width="0.5"/><text x="140" y="24" font-size="9" fill="#888780" font-family="Arial" font-weight="normal" text-anchor="middle">9:41</text><rect x="6" y="40" width="268" height="36" rx="0" fill="white" stroke="#D3D1C7" stroke-width="0.5"/><text x="18" y="58" font-size="12" fill="#363636" font-family="Arial" font-weight="bold" text-anchor="start">유형 선택풀기</text><rect x="14" y="80" width="252" height="28" rx="0" fill="white" stroke="#D3D1C7" stroke-width="0.5"/><text x="20" y="93" font-size="12" fill="#363636" font-family="Arial" font-weight="bold" text-anchor="start">4</text><text x="34" y="93" font-size="9" fill="#888780" font-family="Arial" font-weight="normal" text-anchor="start">/ 10</text><text x="90" y="93" font-size="8" fill="#0F6E56" font-family="Arial" font-weight="normal" text-anchor="start">정답 2</text><text x="140" y="93" font-size="8" fill="#993C1D" font-family="Arial" font-weight="normal" text-anchor="start">오답 0</text><text x="190" y="93" font-size="8" fill="#888780" font-family="Arial" font-weight="normal" text-anchor="start">건너뜀 1</text><rect x="14" y="108" width="252" height="4" rx="2" fill="#D3D1C7"/><rect x="14" y="108" width="76" height="4" rx="2" fill="#534AB7"/><text x="18" y="126" font-size="12" fill="#363636" font-family="Arial" font-weight="bold" text-anchor="start">4번</text><rect x="136" y="118" width="68" height="16" rx="20" fill="#EEEDFE" stroke="#534AB7" stroke-width="0.5"/><text x="170" y="128.4" font-size="7.5" fill="#3C3489" font-family="Arial" font-weight="normal" text-anchor="middle">대화 듣기</text><text x="18" y="148" font-size="10" fill="#363636" font-family="Arial" font-weight="normal" text-anchor="start">다음을 듣고 이어질 말로</text><text x="18" y="162" font-size="10" fill="#363636" font-family="Arial" font-weight="normal" text-anchor="start">가장 알맞은 것을 고르세요.</text><rect x="14" y="170" width="252" height="36" rx="6" fill="#F1EFE8" stroke="#D3D1C7" stroke-width="0.5"/><circle cx="36" cy="188" r="12" fill="#534AB7"/><polygon points="31,182 44,188 31,194" fill="white"/><text x="54" y="184" font-size="8" fill="#888780" font-family="Arial" font-weight="normal" text-anchor="start">듣기 지문</text><rect x="54" y="190" width="190" height="3" rx="2" fill="#D3D1C7"/><rect x="54" y="190" width="76" height="3" rx="2" fill="#534AB7"/><circle cx="130" cy="191" r="4" fill="#534AB7"/><text x="260" y="194" font-size="7" fill="#888780" font-family="Arial" font-weight="normal" text-anchor="end">0:38</text><rect x="14" y="212" width="252" height="28" rx="6" fill="white" stroke="#D3D1C7" stroke-width="0.5"/><circle cx="34" cy="226" r="10" fill="#F1EFE8"/><text x="34" y="231" font-size="9" fill="white" font-family="Arial" font-weight="bold" text-anchor="middle">1</text><text x="50" y="230" font-size="9.5" fill="#363636" font-family="Arial" font-weight="normal" text-anchor="start">네, 감사합니다.</text><rect x="14" y="244" width="252" height="28" rx="6" fill="white" stroke="#D3D1C7" stroke-width="0.5"/><circle cx="34" cy="258" r="10" fill="#F1EFE8"/><text x="34" y="263" font-size="9" fill="white" font-family="Arial" font-weight="bold" text-anchor="middle">2</text><text x="50" y="262" font-size="9.5" fill="#363636" font-family="Arial" font-weight="normal" text-anchor="start">아니요, 괜찮아요.</text><rect x="14" y="276" width="252" height="28" rx="6" fill="white" stroke="#D3D1C7" stroke-width="0.5"/><circle cx="34" cy="290" r="10" fill="#F1EFE8"/><text x="34" y="295" font-size="9" fill="white" font-family="Arial" font-weight="bold" text-anchor="middle">3</text><text x="50" y="294" font-size="9.5" fill="#363636" font-family="Arial" font-weight="normal" text-anchor="start">맞아요, 저도요.</text><rect x="14" y="308" width="252" height="28" rx="6" fill="white" stroke="#D3D1C7" stroke-width="0.5"/><circle cx="34" cy="322" r="10" fill="#F1EFE8"/><text x="34" y="327" font-size="9" fill="white" font-family="Arial" font-weight="bold" text-anchor="middle">4</text><text x="50" y="326" font-size="9.5" fill="#363636" font-family="Arial" font-weight="normal" text-anchor="start">잘 모르겠어요.</text><rect x="6" y="464" width="268" height="40" rx="0" fill="white" stroke="#D3D1C7" stroke-width="0.5"/><rect x="14" y="472" width="70" height="24" rx="6" fill="white" stroke="#D3D1C7" stroke-width="0.5"/><text x="49" y="488" font-size="10" fill="#888780" font-family="Arial" font-weight="normal" text-anchor="middle">이전</text><rect x="90" y="472" width="178" height="24" rx="6" fill="#534AB7" stroke="#534AB7" stroke-width="0.5"/><text x="179" y="488" font-size="10" fill="white" font-family="Arial" font-weight="bold" text-anchor="middle">다음 문제</text><rect x="6" y="520" width="268" height="44" rx="0" fill="white" stroke="#D3D1C7" stroke-width="0.5"/><rect x="10" y="524" width="59" height="20" rx="4" fill="#F1EFE8"/><text x="39.5" y="558" font-size="7" fill="#888780" font-family="Arial" font-weight="normal" text-anchor="middle">대시보드</text><rect x="77" y="524" width="59" height="20" rx="4" fill="#534AB7"/><text x="106.5" y="558" font-size="7" fill="#534AB7" font-family="Arial" font-weight="bold" text-anchor="middle">기출문제</text><rect x="144" y="524" width="59" height="20" rx="4" fill="#F1EFE8"/><text x="173.5" y="558" font-size="7" fill="#888780" font-family="Arial" font-weight="normal" text-anchor="middle">연습문제</text><rect x="211" y="524" width="59" height="20" rx="4" fill="#F1EFE8"/><text x="240.5" y="558" font-size="7" fill="#888780" font-family="Arial" font-weight="normal" text-anchor="middle">마이페이지</text><rect x="304" y="4" width="272" height="560" rx="20" fill="white" stroke="#D3D1C7" stroke-width="0.5"/><rect x="306" y="4" width="268" height="32" rx="8" fill="#F1EFE8" stroke="#D3D1C7" stroke-width="0.5"/><text x="440" y="24" font-size="9" fill="#888780" font-family="Arial" font-weight="normal" text-anchor="middle">9:41</text><rect x="306" y="40" width="268" height="36" rx="0" fill="white" stroke="#D3D1C7" stroke-width="0.5"/><text x="318" y="58" font-size="12" fill="#363636" font-family="Arial" font-weight="bold" text-anchor="start">유형 선택풀기</text><rect x="314" y="80" width="252" height="28" rx="0" fill="white" stroke="#D3D1C7" stroke-width="0.5"/><text x="320" y="93" font-size="12" fill="#363636" font-family="Arial" font-weight="bold" text-anchor="start">4</text><text x="334" y="93" font-size="9" fill="#888780" font-family="Arial" font-weight="normal" text-anchor="start">/ 10</text><text x="390" y="93" font-size="8" fill="#0F6E56" font-family="Arial" font-weight="normal" text-anchor="start">정답 2</text><text x="440" y="93" font-size="8" fill="#993C1D" font-family="Arial" font-weight="normal" text-anchor="start">오답 1</text><text x="490" y="93" font-size="8" fill="#888780" font-family="Arial" font-weight="normal" text-anchor="start">건너뜀 1</text><rect x="314" y="108" width="252" height="4" rx="2" fill="#D3D1C7"/><rect x="314" y="108" width="101" height="4" rx="2" fill="#534AB7"/><text x="318" y="126" font-size="12" fill="#363636" font-family="Arial" font-weight="bold" text-anchor="start">4번</text><rect x="436" y="118" width="68" height="16" rx="20" fill="#EEEDFE" stroke="#534AB7" stroke-width="0.5"/><text x="470" y="128.4" font-size="7.5" fill="#3C3489" font-family="Arial" font-weight="normal" text-anchor="middle">대화 듣기</text><text x="318" y="148" font-size="10" fill="#363636" font-family="Arial" font-weight="normal" text-anchor="start">다음을 듣고 이어질 말로</text><text x="318" y="162" font-size="10" fill="#363636" font-family="Arial" font-weight="normal" text-anchor="start">가장 알맞은 것을 고르세요.</text><rect x="314" y="170" width="252" height="36" rx="6" fill="#F1EFE8" stroke="#D3D1C7" stroke-width="0.5"/><circle cx="336" cy="188" r="12" fill="#534AB7"/><polygon points="331,182 344,188 331,194" fill="white"/><text x="354" y="184" font-size="8" fill="#888780" font-family="Arial" font-weight="normal" text-anchor="start">듣기 지문</text><rect x="354" y="190" width="190" height="3" rx="2" fill="#D3D1C7"/><rect x="354" y="190" width="76" height="3" rx="2" fill="#534AB7"/><circle cx="430" cy="191" r="4" fill="#534AB7"/><text x="560" y="194" font-size="7" fill="#888780" font-family="Arial" font-weight="normal" text-anchor="end">0:38</text><rect x="314" y="212" width="252" height="28" rx="6" fill="#E1F5EE" stroke="#0F6E56" stroke-width="0.5"/><circle cx="334" cy="226" r="10" fill="#0F6E56"/><text x="334" y="231" font-size="9" fill="white" font-family="Arial" font-weight="bold" text-anchor="middle">1</text><text x="350" y="230" font-size="9.5" fill="#085041" font-family="Arial" font-weight="normal" text-anchor="start">네, 감사합니다.</text><rect x="516" y="218" width="46" height="14" rx="20" fill="#E1F5EE" stroke="#0F6E56" stroke-width="0.5"/><text x="539" y="227.1" font-size="7" fill="#085041" font-family="Arial" font-weight="normal" text-anchor="middle">정답</text><rect x="314" y="244" width="252" height="28" rx="6" fill="white" stroke="#D3D1C7" stroke-width="0.5"/><circle cx="334" cy="258" r="10" fill="#F1EFE8"/><text x="334" y="263" font-size="9" fill="white" font-family="Arial" font-weight="bold" text-anchor="middle">2</text><text x="350" y="262" font-size="9.5" fill="#363636" font-family="Arial" font-weight="normal" text-anchor="start">아니요, 괜찮아요.</text><rect x="314" y="276" width="252" height="28" rx="6" fill="#FAECE7" stroke="#993C1D" stroke-width="0.5"/><circle cx="334" cy="290" r="10" fill="#993C1D"/><text x="334" y="295" font-size="9" fill="white" font-family="Arial" font-weight="bold" text-anchor="middle">3</text><text x="350" y="294" font-size="9.5" fill="#993C1D" font-family="Arial" font-weight="normal" text-anchor="start">맞아요, 저도요.</text><rect x="516" y="282" width="44" height="14" rx="20" fill="#FAECE7" stroke="#993C1D" stroke-width="0.5"/><text x="538" y="291.1" font-size="7" fill="#712B13" font-family="Arial" font-weight="normal" text-anchor="middle">내 답</text><rect x="314" y="308" width="252" height="28" rx="6" fill="white" stroke="#D3D1C7" stroke-width="0.5"/><circle cx="334" cy="322" r="10" fill="#F1EFE8"/><text x="334" y="327" font-size="9" fill="white" font-family="Arial" font-weight="bold" text-anchor="middle">4</text><text x="350" y="326" font-size="9.5" fill="#363636" font-family="Arial" font-weight="normal" text-anchor="start">잘 모르겠어요.</text><rect x="314" y="344" width="252" height="88" rx="8" fill="#FAECE7" stroke="#F5C4B3" stroke-width="0.5"/><circle cx="328" cy="358" r="5" fill="#993C1D"/><text x="338" y="362" font-size="9" fill="#712B13" font-family="Arial" font-weight="bold" text-anchor="start">Sai rồi!</text><rect x="504" y="350" width="60" height="14" rx="7" fill="#F5C4B3"/><text x="534" y="360" font-size="6.5" fill="#712B13" font-family="Arial" font-weight="normal" text-anchor="middle">Tiếng Việt</text><text x="326" y="378" font-size="8" fill="#993C1D" font-family="Arial" font-weight="normal" text-anchor="start">Người kia đang nói cảm ơn. Đáp án đúng là ①.</text><line x1="324" y1="412" x2="556" y2="412" stroke="#F5C4B3" stroke-width="0.5"/><text x="326" y="424" font-size="7.5" fill="#993C1D" font-family="Arial" font-weight="normal" text-anchor="start">▶  관련 강의 · TOPIK I 대화 듣기</text><rect x="306" y="448" width="268" height="52" rx="0" fill="white" stroke="#D3D1C7" stroke-width="0.5"/><rect x="314" y="456" width="70" height="24" rx="6" fill="white" stroke="#D3D1C7" stroke-width="0.5"/><text x="349" y="472" font-size="10" fill="#888780" font-family="Arial" font-weight="normal" text-anchor="middle">이전</text><rect x="390" y="456" width="178" height="24" rx="6" fill="#534AB7" stroke="#534AB7" stroke-width="0.5"/><text x="479" y="472" font-size="10" fill="white" font-family="Arial" font-weight="bold" text-anchor="middle">다음 문제</text><rect x="306" y="520" width="268" height="44" rx="0" fill="white" stroke="#D3D1C7" stroke-width="0.5"/><rect x="310" y="524" width="59" height="20" rx="4" fill="#F1EFE8"/><text x="339.5" y="558" font-size="7" fill="#888780" font-family="Arial" font-weight="normal" text-anchor="middle">대시보드</text><rect x="377" y="524" width="59" height="20" rx="4" fill="#534AB7"/><text x="406.5" y="558" font-size="7" fill="#534AB7" font-family="Arial" font-weight="bold" text-anchor="middle">기출문제</text><rect x="444" y="524" width="59" height="20" rx="4" fill="#F1EFE8"/><text x="473.5" y="558" font-size="7" fill="#888780" font-family="Arial" font-weight="normal" text-anchor="middle">연습문제</text><rect x="511" y="524" width="59" height="20" rx="4" fill="#F1EFE8"/><text x="540.5" y="558" font-size="7" fill="#888780" font-family="Arial" font-weight="normal" text-anchor="middle">마이페이지</text></svg>