<svg width="580" height="564" xmlns="http://www.w3.org/2000/svg"><rect width="580" height="564" fill="#F8F7F4"/><rect x="4" y="4" width="272" height="560" rx="20" fill="white" stroke="#D3D1C7" stroke-width="0.5"/><rect x="6" y="4" width="268" height="32" rx="8" fill="#F1EFE8" stroke="#D3D1C7" stroke-width="0.5"/><text x="140" y="24" font-size="9" fill="#888780" font-family="Arial" font-weight="normal" text-anchor="middle">9:41</text><rect x="6" y="36" width="268" height="70" rx="0" fill="#26215C"/><text x="18" y="54" font-size="8.5" fill="#AFA9EC" font-family="Arial" font-weight="normal" text-anchor="start">102회 TOPIK I</text><text x="18" y="70" font-size="12" fill="white" font-family="Arial" font-weight="bold" text-anchor="start">듣기 영역</text><rect x="178" y="42" width="68" height="52" rx="8" fill="#534AB7"/><text x="212" y="64" font-size="18" fill="white" font-family="Arial" font-weight="bold" text-anchor="middle">32:14</text><text x="212" y="80" font-size="7" fill="#AFA9EC" font-family="Arial" font-weight="normal" text-anchor="middle">남은 시간</text><rect x="242" y="46" width="32" height="32" rx="16" fill="#26215C" stroke="#534AB7" stroke-width="0.5"/><text x="258" y="67" font-size="14" fill="#AFA9EC" font-family="Arial" font-weight="normal" text-anchor="middle">✕</text><rect x="6" y="106" width="268" height="28" rx="0" fill="#1a1660"/><text x="14" y="118" font-size="8" fill="#AFA9EC" font-family="Arial" font-weight="normal" text-anchor="start">12 / 30 문항</text><text x="254" y="118" font-size="8" fill="#AFA9EC" font-family="Arial" font-weight="normal" text-anchor="end">40%</text><rect x="14" y="124" width="252" height="4" rx="2" fill="rgba(255,255,255,0.2)"/><rect x="14" y="124" width="101" height="4" rx="2" fill="#7F77DD"/><text x="18" y="152" font-size="12" fill="#363636" font-family="Arial" font-weight="bold" text-anchor="start">12번</text><rect x="142" y="144" width="64" height="16" rx="20" fill="#EEEDFE" stroke="#534AB7" stroke-width="0.5"/><text x="174" y="154.4" font-size="7.5" fill="#3C3489" font-family="Arial" font-weight="normal" text-anchor="middle">듣기</text><text x="18" y="174" font-size="10" fill="#363636" font-family="Arial" font-weight="normal" text-anchor="start">다음을 듣고 이어질 말로</text><text x="18" y="188" font-size="10" fill="#363636" font-family="Arial" font-weight="normal" text-anchor="start">가장 알맞은 것을 고르세요.</text><rect x="14" y="196" width="252" height="36" rx="6" fill="#F1EFE8" stroke="#D3D1C7" stroke-width="0.5"/><circle cx="36" cy="214" r="12" fill="#534AB7"/><polygon points="31,208 44,214 31,220" fill="white"/><text x="54" y="210" font-size="8" fill="#888780" font-family="Arial" font-weight="normal" text-anchor="start">듣기 지문</text><rect x="54" y="216" width="190" height="3" rx="2" fill="#D3D1C7"/><rect x="54" y="216" width="76" height="3" rx="2" fill="#534AB7"/><circle cx="130" cy="217" r="4" fill="#534AB7"/><text x="260" y="220" font-size="7" fill="#888780" font-family="Arial" font-weight="normal" text-anchor="end">0:38</text><rect x="14" y="238" width="252" height="28" rx="6" fill="white" stroke="#D3D1C7" stroke-width="0.5"/><circle cx="34" cy="252" r="10" fill="#F1EFE8"/><text x="34" y="257" font-size="9" fill="white" font-family="Arial" font-weight="bold" text-anchor="middle">1</text><text x="50" y="256" font-size="9.5" fill="#363636" font-family="Arial" font-weight="normal" text-anchor="start">네, 괜찮아요.</text><rect x="14" y="270" width="252" height="28" rx="6" fill="#EEEDFE" stroke="#534AB7" stroke-width="0.5"/><circle cx="34" cy="284" r="10" fill="#534AB7"/><text x="34" y="289" font-size="9" fill="white" font-family="Arial" font-weight="bold" text-anchor="middle">2</text><text x="50" y="288" font-size="9.5" fill="#3C3489" font-family="Arial" font-weight="normal" text-anchor="start">아니요, 감사합니다.</text><rect x="14" y="302" width="252" height="28" rx="6" fill="white" stroke="#D3D1C7" stroke-width="0.5"/><circle cx="34" cy="316" r="10" fill="#F1EFE8"/><text x="34" y="321" font-size="9" fill="white" font-family="Arial" font-weight="bold" text-anchor="middle">3</text><text x="50" y="320" font-size="9.5" fill="#363636" font-family="Arial" font-weight="normal" text-anchor="start">맞아요, 저도요.</text><rect x="14" y="334" width="252" height="28" rx="6" fill="white" stroke="#D3D1C7" stroke-width="0.5"/><circle cx="34" cy="348" r="10" fill="#F1EFE8"/><text x="34" y="353" font-size="9" fill="white" font-family="Arial" font-weight="bold" text-anchor="middle">4</text><text x="50" y="352" font-size="9.5" fill="#363636" font-family="Arial" font-weight="normal" text-anchor="start">잘 모르겠어요.</text><rect x="6" y="376" width="268" height="44" rx="0" fill="#F1EFE8" stroke="#D3D1C7" stroke-width="0.5"/><text x="14" y="390" font-size="7" fill="#888780" font-family="Arial" font-weight="normal" text-anchor="start">문항 이동</text><rect x="14" y="396" width="13" height="13" rx="2" fill="#534AB7"/><rect x="30" y="396" width="13" height="13" rx="2" fill="#534AB7"/><rect x="46" y="396" width="13" height="13" rx="2" fill="#534AB7"/><rect x="62" y="396" width="13" height="13" rx="2" fill="#534AB7"/><rect x="78" y="396" width="13" height="13" rx="2" fill="#534AB7"/><rect x="94" y="396" width="13" height="13" rx="2" fill="#534AB7"/><rect x="110" y="396" width="13" height="13" rx="2" fill="#534AB7"/><rect x="126" y="396" width="13" height="13" rx="2" fill="#534AB7"/><rect x="142" y="396" width="13" height="13" rx="2" fill="#534AB7"/><rect x="158" y="396" width="13" height="13" rx="2" fill="#534AB7"/><rect x="174" y="396" width="13" height="13" rx="2" fill="#534AB7"/><rect x="190" y="396" width="13" height="13" rx="2" fill="#534AB7"/><rect x="206" y="396" width="13" height="13" rx="2" fill="#F1EFE8"/><rect x="222" y="396" width="13" height="13" rx="2" fill="#F1EFE8"/><rect x="238" y="396" width="13" height="13" rx="2" fill="#F1EFE8"/><rect x="14" y="412" width="13" height="13" rx="2" fill="#F1EFE8"/><rect x="30" y="412" width="13" height="13" rx="2" fill="#F1EFE8"/><rect x="46" y="412" width="13" height="13" rx="2" fill="#F1EFE8"/><rect x="6" y="428" width="268" height="40" rx="0" fill="white" stroke="#D3D1C7" stroke-width="0.5"/><rect x="14" y="436" width="70" height="24" rx="6" fill="white" stroke="#D3D1C7" stroke-width="0.5"/><text x="49" y="452" font-size="10" fill="#888780" font-family="Arial" font-weight="normal" text-anchor="middle">이전</text><rect x="90" y="436" width="178" height="24" rx="6" fill="#534AB7" stroke="#534AB7" stroke-width="0.5"/><text x="179" y="452" font-size="10" fill="white" font-family="Arial" font-weight="bold" text-anchor="middle">다음</text><rect x="304" y="4" width="272" height="560" rx="20" fill="white" stroke="#D3D1C7" stroke-width="0.5"/><rect x="306" y="4" width="268" height="32" rx="8" fill="#F1EFE8" stroke="#D3D1C7" stroke-width="0.5"/><text x="440" y="24" font-size="9" fill="#888780" font-family="Arial" font-weight="normal" text-anchor="middle">9:41</text><rect x="306" y="40" width="268" height="36" rx="0" fill="white" stroke="#D3D1C7" stroke-width="0.5"/><text x="318" y="58" font-size="13" fill="#363636" font-family="Arial" font-weight="bold" text-anchor="start">결과</text><text x="440" y="80" font-size="8" fill="#888780" font-family="Arial" font-weight="normal" text-anchor="middle">102회 TOPIK I · 듣기+읽기</text><text x="440" y="116" font-size="36" fill="#534AB7" font-family="Arial" font-weight="bold" text-anchor="middle">148</text><text x="440" y="116" font-size="14" fill="#888780" font-family="Arial" font-weight="normal" text-anchor="middle">        / 200</text><text x="440" y="136" font-size="9" fill="#0F6E56" font-family="Arial" font-weight="normal" text-anchor="middle">합격 기준 120점 이상 · 2급 달성</text><rect x="314" y="150" width="60" height="40" rx="6" fill="white" stroke="#D3D1C7" stroke-width="0.5"/><text x="344" y="167" font-size="12" fill="#0F6E56" font-family="Arial" font-weight="bold" text-anchor="middle">52</text><text x="344" y="182" font-size="7" fill="#888780" font-family="Arial" font-weight="normal" text-anchor="middle">정답</text><rect x="378" y="150" width="60" height="40" rx="6" fill="white" stroke="#D3D1C7" stroke-width="0.5"/><text x="408" y="167" font-size="12" fill="#993C1D" font-family="Arial" font-weight="bold" text-anchor="middle">18</text><text x="408" y="182" font-size="7" fill="#888780" font-family="Arial" font-weight="normal" text-anchor="middle">오답</text><rect x="442" y="150" width="60" height="40" rx="6" fill="white" stroke="#D3D1C7" stroke-width="0.5"/><text x="472" y="167" font-size="12" fill="#534AB7" font-family="Arial" font-weight="bold" text-anchor="middle">74%</text><text x="472" y="182" font-size="7" fill="#888780" font-family="Arial" font-weight="normal" text-anchor="middle">정답률</text><rect x="506" y="150" width="60" height="40" rx="6" fill="white" stroke="#D3D1C7" stroke-width="0.5"/><text x="536" y="167" font-size="12" fill="#888780" font-family="Arial" font-weight="bold" text-anchor="middle">87분</text><text x="536" y="182" font-size="7" fill="#888780" font-family="Arial" font-weight="normal" text-anchor="middle">소요시간</text><text x="318" y="204" font-size="7" fill="#888780" font-family="Arial" font-weight="normal" text-anchor="start">문항별 정오답</text><text x="318" y="218" font-size="8.5" fill="#363636" font-family="Arial" font-weight="bold" text-anchor="start">듣기</text><text x="548" y="218" font-size="7" fill="#888780" font-family="Arial" font-weight="normal" text-anchor="end">30문항</text><rect x="314" y="224" width="13" height="13" rx="2" fill="#0F6E56"/><rect x="330" y="224" width="13" height="13" rx="2" fill="#0F6E56"/><rect x="346" y="224" width="13" height="13" rx="2" fill="#0F6E56"/><rect x="362" y="224" width="13" height="13" rx="2" fill="#993C1D"/><rect x="378" y="224" width="13" height="13" rx="2" fill="#0F6E56"/><rect x="394" y="224" width="13" height="13" rx="2" fill="#0F6E56"/><rect x="410" y="224" width="13" height="13" rx="2" fill="#0F6E56"/><rect x="426" y="224" width="13" height="13" rx="2" fill="#993C1D"/><rect x="442" y="224" width="13" height="13" rx="2" fill="#0F6E56"/><rect x="458" y="224" width="13" height="13" rx="2" fill="#0F6E56"/><rect x="474" y="224" width="13" height="13" rx="2" fill="#0F6E56"/><rect x="490" y="224" width="13" height="13" rx="2" fill="#0F6E56"/><rect x="506" y="224" width="13" height="13" rx="2" fill="#993C1D"/><rect x="522" y="224" width="13" height="13" rx="2" fill="#0F6E56"/><rect x="538" y="224" width="13" height="13" rx="2" fill="#0F6E56"/><rect x="314" y="240" width="13" height="13" rx="2" fill="#0F6E56"/><rect x="330" y="240" width="13" height="13" rx="2" fill="#0F6E56"/><rect x="346" y="240" width="13" height="13" rx="2" fill="#993C1D"/><rect x="362" y="240" width="13" height="13" rx="2" fill="#0F6E56"/><rect x="378" y="240" width="13" height="13" rx="2" fill="#0F6E56"/><rect x="394" y="240" width="13" height="13" rx="2" fill="#0F6E56"/><rect x="410" y="240" width="13" height="13" rx="2" fill="#0F6E56"/><rect x="426" y="240" width="13" height="13" rx="2" fill="#993C1D"/><rect x="442" y="240" width="13" height="13" rx="2" fill="#0F6E56"/><rect x="458" y="240" width="13" height="13" rx="2" fill="#0F6E56"/><rect x="474" y="240" width="13" height="13" rx="2" fill="#0F6E56"/><rect x="490" y="240" width="13" height="13" rx="2" fill="#993C1D"/><rect x="506" y="240" width="13" height="13" rx="2" fill="#0F6E56"/><rect x="522" y="240" width="13" height="13" rx="2" fill="#0F6E56"/><rect x="538" y="240" width="13" height="13" rx="2" fill="#0F6E56"/><text x="318" y="264" font-size="8.5" fill="#363636" font-family="Arial" font-weight="bold" text-anchor="start">읽기</text><text x="548" y="264" font-size="7" fill="#888780" font-family="Arial" font-weight="normal" text-anchor="end">40문항</text><rect x="314" y="270" width="13" height="13" rx="2" fill="#0F6E56"/><rect x="330" y="270" width="13" height="13" rx="2" fill="#0F6E56"/><rect x="346" y="270" width="13" height="13" rx="2" fill="#993C1D"/><rect x="362" y="270" width="13" height="13" rx="2" fill="#0F6E56"/><rect x="378" y="270" width="13" height="13" rx="2" fill="#0F6E56"/><rect x="394" y="270" width="13" height="13" rx="2" fill="#0F6E56"/><rect x="410" y="270" width="13" height="13" rx="2" fill="#993C1D"/><rect x="426" y="270" width="13" height="13" rx="2" fill="#0F6E56"/><rect x="442" y="270" width="13" height="13" rx="2" fill="#0F6E56"/><rect x="458" y="270" width="13" height="13" rx="2" fill="#0F6E56"/><rect x="474" y="270" width="13" height="13" rx="2" fill="#993C1D"/><rect x="490" y="270" width="13" height="13" rx="2" fill="#0F6E56"/><rect x="506" y="270" width="13" height="13" rx="2" fill="#0F6E56"/><rect x="522" y="270" width="13" height="13" rx="2" fill="#0F6E56"/><rect x="538" y="270" width="13" height="13" rx="2" fill="#0F6E56"/><rect x="314" y="286" width="13" height="13" rx="2" fill="#993C1D"/><rect x="330" y="286" width="13" height="13" rx="2" fill="#0F6E56"/><rect x="346" y="286" width="13" height="13" rx="2" fill="#0F6E56"/><rect x="362" y="286" width="13" height="13" rx="2" fill="#0F6E56"/><rect x="378" y="286" width="13" height="13" rx="2" fill="#0F6E56"/><rect x="394" y="286" width="13" height="13" rx="2" fill="#993C1D"/><rect x="410" y="286" width="13" height="13" rx="2" fill="#0F6E56"/><rect x="426" y="286" width="13" height="13" rx="2" fill="#0F6E56"/><rect x="442" y="286" width="13" height="13" rx="2" fill="#0F6E56"/><rect x="458" y="286" width="13" height="13" rx="2" fill="#993C1D"/><rect x="474" y="286" width="13" height="13" rx="2" fill="#0F6E56"/><rect x="490" y="286" width="13" height="13" rx="2" fill="#0F6E56"/><rect x="506" y="286" width="13" height="13" rx="2" fill="#0F6E56"/><rect x="522" y="286" width="13" height="13" rx="2" fill="#993C1D"/><rect x="538" y="286" width="13" height="13" rx="2" fill="#0F6E56"/><rect x="314" y="302" width="13" height="13" rx="2" fill="#0F6E56"/><rect x="330" y="302" width="13" height="13" rx="2" fill="#0F6E56"/><rect x="346" y="302" width="13" height="13" rx="2" fill="#993C1D"/><rect x="362" y="302" width="13" height="13" rx="2" fill="#0F6E56"/><rect x="378" y="302" width="13" height="13" rx="2" fill="#0F6E56"/><rect x="394" y="302" width="13" height="13" rx="2" fill="#0F6E56"/><rect x="410" y="302" width="13" height="13" rx="2" fill="#0F6E56"/><rect x="426" y="302" width="13" height="13" rx="2" fill="#993C1D"/><rect x="442" y="302" width="13" height="13" rx="2" fill="#0F6E56"/><rect x="458" y="302" width="13" height="13" rx="2" fill="#0F6E56"/><circle cx="318" cy="314" r="5" fill="#0F6E56"/><text x="328" y="318" font-size="7" fill="#888780" font-family="Arial" font-weight="normal" text-anchor="start">정답</text><circle cx="358" cy="314" r="5" fill="#993C1D"/><text x="368" y="318" font-size="7" fill="#888780" font-family="Arial" font-weight="normal" text-anchor="start">오답</text><rect x="314" y="328" width="252" height="40" rx="8" fill="#534AB7"/><text x="440" y="342" font-size="11" fill="white" font-family="Arial" font-weight="bold" text-anchor="middle">문항별 피드백 보기</text><text x="440" y="358" font-size="8" fill="#AFA9EC" font-family="Arial" font-weight="normal" text-anchor="middle">오답 해설 · AI 분석</text><rect x="314" y="376" width="252" height="32" rx="8" fill="white" stroke="#D3D1C7" stroke-width="0.5"/><text x="440" y="397" font-size="10" fill="#363636" font-family="Arial" font-weight="bold" text-anchor="middle">대시보드로 이동</text></svg>