<svg width="580" height="564" xmlns="http://www.w3.org/2000/svg"><rect width="580" height="564" fill="#F8F7F4"/><rect x="4" y="4" width="272" height="560" rx="20" fill="white" stroke="#D3D1C7" stroke-width="0.5"/><rect x="6" y="4" width="268" height="32" rx="8" fill="#F1EFE8" stroke="#D3D1C7" stroke-width="0.5"/><text x="140" y="24" font-size="9" fill="#888780" font-family="Arial" font-weight="normal" text-anchor="middle">9:41</text><rect x="6" y="40" width="268" height="36" rx="0" fill="white" stroke="#D3D1C7" stroke-width="0.5"/><text x="18" y="58" font-size="13" fill="#363636" font-family="Arial" font-weight="bold" text-anchor="start">결과</text><text x="140" y="80" font-size="8" fill="#888780" font-family="Arial" font-weight="normal" text-anchor="middle">대화 듣기 유형 · 10문항</text><text x="140" y="116" font-size="36" fill="#534AB7" font-family="Arial" font-weight="bold" text-anchor="middle">6</text><text x="140" y="116" font-size="14" fill="#888780" font-family="Arial" font-weight="normal" text-anchor="middle">     / 10</text><rect x="14" y="132" width="82" height="38" rx="6" fill="white" stroke="#D3D1C7" stroke-width="0.5"/><text x="55" y="148" font-size="14" fill="#0F6E56" font-family="Arial" font-weight="bold" text-anchor="middle">6</text><text x="55" y="164" font-size="7" fill="#888780" font-family="Arial" font-weight="normal" text-anchor="middle">정답</text><rect x="100" y="132" width="82" height="38" rx="6" fill="white" stroke="#D3D1C7" stroke-width="0.5"/><text x="141" y="148" font-size="14" fill="#993C1D" font-family="Arial" font-weight="bold" text-anchor="middle">2</text><text x="141" y="164" font-size="7" fill="#888780" font-family="Arial" font-weight="normal" text-anchor="middle">오답</text><rect x="186" y="132" width="82" height="38" rx="6" fill="white" stroke="#D3D1C7" stroke-width="0.5"/><text x="227" y="148" font-size="14" fill="#888780" font-family="Arial" font-weight="bold" text-anchor="middle">2</text><text x="227" y="164" font-size="7" fill="#888780" font-family="Arial" font-weight="normal" text-anchor="middle">건너뜀</text><text x="18" y="186" font-size="7" fill="#888780" font-family="Arial" font-weight="normal" text-anchor="start">문항별 결과</text><circle cx="24" cy="206" r="10" fill="#E1F5EE" stroke="#0F6E56" stroke-width="0.5"/><text x="24" y="211" font-size="8.5" fill="#0F6E56" font-family="Arial" font-weight="bold" text-anchor="middle">O</text><text x="40" y="210" font-size="9.5" fill="#363636" font-family="Arial" font-weight="normal" text-anchor="start">1번 · 대화 듣고 이어질 말</text><line x1="14" y1="222" x2="266" y2="222" stroke="#D3D1C7" stroke-width="0.5"/><circle cx="24" cy="236" r="10" fill="#E1F5EE" stroke="#0F6E56" stroke-width="0.5"/><text x="24" y="241" font-size="8.5" fill="#0F6E56" font-family="Arial" font-weight="bold" text-anchor="middle">O</text><text x="40" y="240" font-size="9.5" fill="#363636" font-family="Arial" font-weight="normal" text-anchor="start">2번 · 내용 일치 고르기</text><line x1="14" y1="252" x2="266" y2="252" stroke="#D3D1C7" stroke-width="0.5"/><circle cx="24" cy="266" r="10" fill="#F1EFE8" stroke="#888780" stroke-width="0.5"/><text x="24" y="271" font-size="8.5" fill="#888780" font-family="Arial" font-weight="bold" text-anchor="middle">—</text><text x="40" y="270" font-size="9.5" fill="#363636" font-family="Arial" font-weight="normal" text-anchor="start">3번 · 대화 듣기</text><rect x="186" y="260" width="58" height="16" rx="20" fill="#EEEDFE" stroke="#534AB7" stroke-width="0.5"/><text x="215" y="270.4" font-size="7" fill="#534AB7" font-family="Arial" font-weight="normal" text-anchor="middle">풀어보기</text><line x1="14" y1="282" x2="266" y2="282" stroke="#D3D1C7" stroke-width="0.5"/><circle cx="24" cy="296" r="10" fill="#FAECE7" stroke="#993C1D" stroke-width="0.5"/><text x="24" y="301" font-size="8.5" fill="#993C1D" font-family="Arial" font-weight="bold" text-anchor="middle">X</text><text x="40" y="300" font-size="9.5" fill="#363636" font-family="Arial" font-weight="normal" text-anchor="start">4번 · 대화 듣기</text><rect x="194" y="290" width="48" height="16" rx="20" fill="#FAECE7" stroke="#993C1D" stroke-width="0.5"/><text x="218" y="300.4" font-size="7" fill="#993C1D" font-family="Arial" font-weight="normal" text-anchor="middle">해설</text><line x1="14" y1="312" x2="266" y2="312" stroke="#D3D1C7" stroke-width="0.5"/><circle cx="24" cy="326" r="10" fill="#E1F5EE" stroke="#0F6E56" stroke-width="0.5"/><text x="24" y="331" font-size="8.5" fill="#0F6E56" font-family="Arial" font-weight="bold" text-anchor="middle">O</text><text x="40" y="330" font-size="9.5" fill="#363636" font-family="Arial" font-weight="normal" text-anchor="start">5번 · 내용 일치 고르기</text><line x1="14" y1="342" x2="266" y2="342" stroke="#D3D1C7" stroke-width="0.5"/><circle cx="24" cy="356" r="10" fill="#F1EFE8" stroke="#888780" stroke-width="0.5"/><text x="24" y="361" font-size="8.5" fill="#888780" font-family="Arial" font-weight="bold" text-anchor="middle">—</text><text x="40" y="360" font-size="9.5" fill="#363636" font-family="Arial" font-weight="normal" text-anchor="start">6번 · 중심 내용</text><rect x="186" y="350" width="58" height="16" rx="20" fill="#EEEDFE" stroke="#534AB7" stroke-width="0.5"/><text x="215" y="360.4" font-size="7" fill="#534AB7" font-family="Arial" font-weight="normal" text-anchor="middle">풀어보기</text><rect x="14" y="394" width="252" height="40" rx="8" fill="#534AB7"/><text x="140" y="408" font-size="11" fill="white" font-family="Arial" font-weight="bold" text-anchor="middle">유사 문제 다시 풀기</text><text x="140" y="424" font-size="8" fill="#AFA9EC" font-family="Arial" font-weight="normal" text-anchor="middle">같은 유형 · 새 문항으로 재도전</text><rect x="14" y="442" width="120" height="30" rx="8" fill="white" stroke="#534AB7" stroke-width="0.5"/><text x="74" y="461" font-size="9" fill="#534AB7" font-family="Arial" font-weight="normal" text-anchor="middle">다른 유형 선택</text><rect x="140" y="442" width="126" height="30" rx="8" fill="white" stroke="#D3D1C7" stroke-width="0.5"/><text x="203" y="461" font-size="9" fill="#363636" font-family="Arial" font-weight="normal" text-anchor="middle">대시보드</text><rect x="304" y="4" width="272" height="560" rx="20" fill="white" stroke="#D3D1C7" stroke-width="0.5"/><rect x="306" y="4" width="268" height="32" rx="8" fill="#F1EFE8" stroke="#D3D1C7" stroke-width="0.5"/><text x="440" y="24" font-size="9" fill="#888780" font-family="Arial" font-weight="normal" text-anchor="middle">9:41</text><rect x="306" y="40" width="268" height="36" rx="0" fill="white" stroke="#D3D1C7" stroke-width="0.5"/><text x="318" y="58" font-size="13" fill="#363636" font-family="Arial" font-weight="bold" text-anchor="start">문제 해설</text><text x="318" y="84" font-size="7" fill="#888780" font-family="Arial" font-weight="normal" text-anchor="start">오답 문항</text><rect x="314" y="90" width="44" height="18" rx="20" fill="#FAECE7" stroke="#993C1D" stroke-width="0.5"/><text x="336" y="101.7" font-size="8" fill="#993C1D" font-family="Arial" font-weight="normal" text-anchor="middle">2번</text><rect x="362" y="90" width="44" height="18" rx="20" fill="white" stroke="#D3D1C7" stroke-width="0.5"/><text x="384" y="101.7" font-size="8" fill="#888780" font-family="Arial" font-weight="normal" text-anchor="middle">4번</text><rect x="410" y="90" width="44" height="18" rx="20" fill="white" stroke="#D3D1C7" stroke-width="0.5"/><text x="432" y="101.7" font-size="8" fill="#888780" font-family="Arial" font-weight="normal" text-anchor="middle">7번</text><line x1="314" y1="116" x2="566" y2="116" stroke="#D3D1C7" stroke-width="0.5"/><text x="318" y="130" font-size="8" fill="#888780" font-family="Arial" font-weight="normal" text-anchor="start">2번 문항 · 대화 듣고 이어질 말 고르기</text><rect x="314" y="136" width="252" height="56" rx="8" fill="#F1EFE8" stroke="#D3D1C7" stroke-width="0.5"/><text x="324" y="150" font-size="9" fill="#363636" font-family="Arial" font-weight="normal" text-anchor="start">다음을 듣고 이어질 말로</text><text x="324" y="166" font-size="9" fill="#363636" font-family="Arial" font-weight="normal" text-anchor="start">가장 알맞은 것을 고르세요.</text><rect x="314" y="198" width="252" height="28" rx="6" fill="#E1F5EE" stroke="#0F6E56" stroke-width="0.5"/><circle cx="334" cy="212" r="10" fill="#0F6E56"/><text x="334" y="217" font-size="9" fill="white" font-family="Arial" font-weight="bold" text-anchor="middle">1</text><text x="350" y="216" font-size="9.5" fill="#085041" font-family="Arial" font-weight="normal" text-anchor="start">네, 감사합니다.</text><rect x="516" y="204" width="46" height="14" rx="20" fill="#E1F5EE" stroke="#0F6E56" stroke-width="0.5"/><text x="539" y="213.1" font-size="7" fill="#085041" font-family="Arial" font-weight="normal" text-anchor="middle">정답</text><rect x="314" y="230" width="252" height="28" rx="6" fill="white" stroke="#D3D1C7" stroke-width="0.5"/><circle cx="334" cy="244" r="10" fill="#F1EFE8"/><text x="334" y="249" font-size="9" fill="white" font-family="Arial" font-weight="bold" text-anchor="middle">2</text><text x="350" y="248" font-size="9.5" fill="#363636" font-family="Arial" font-weight="normal" text-anchor="start">아니요, 괜찮아요.</text><rect x="314" y="262" width="252" height="28" rx="6" fill="#FAECE7" stroke="#993C1D" stroke-width="0.5"/><circle cx="334" cy="276" r="10" fill="#993C1D"/><text x="334" y="281" font-size="9" fill="white" font-family="Arial" font-weight="bold" text-anchor="middle">3</text><text x="350" y="280" font-size="9.5" fill="#993C1D" font-family="Arial" font-weight="normal" text-anchor="start">맞아요, 저도요.</text><rect x="516" y="268" width="44" height="14" rx="20" fill="#FAECE7" stroke="#993C1D" stroke-width="0.5"/><text x="538" y="277.1" font-size="7" fill="#712B13" font-family="Arial" font-weight="normal" text-anchor="middle">내 답</text><rect x="314" y="294" width="252" height="28" rx="6" fill="white" stroke="#D3D1C7" stroke-width="0.5"/><circle cx="334" cy="308" r="10" fill="#F1EFE8"/><text x="334" y="313" font-size="9" fill="white" font-family="Arial" font-weight="bold" text-anchor="middle">4</text><text x="350" y="312" font-size="9.5" fill="#363636" font-family="Arial" font-weight="normal" text-anchor="start">잘 모르겠어요.</text><rect x="314" y="332" width="252" height="78" rx="8" fill="#EEEDFE" stroke="#534AB7" stroke-width="0.5"/><circle cx="330" cy="350" r="5" fill="#534AB7"/><text x="340" y="354" font-size="9" fill="#3C3489" font-family="Arial" font-weight="bold" text-anchor="start">AI 해설</text><text x="322" y="370" font-size="8.5" fill="#534AB7" font-family="Arial" font-weight="normal" text-anchor="start">이 대화에서 상대방은 감사 표현을 하고</text><text x="322" y="384" font-size="8.5" fill="#534AB7" font-family="Arial" font-weight="normal" text-anchor="start">있어요. ①번이 자연스러운 응답이에요.</text><text x="322" y="398" font-size="8.5" fill="#534AB7" font-family="Arial" font-weight="normal" text-anchor="start">③번은 동의 표현으로 맞지 않아요.</text><rect x="314" y="420" width="252" height="32" rx="8" fill="#534AB7"/><text x="440" y="441" font-size="11" fill="white" font-family="Arial" font-weight="bold" text-anchor="middle">다음 오답 보기</text><rect x="314" y="460" width="252" height="28" rx="8" fill="white" stroke="#D3D1C7" stroke-width="0.5"/><text x="440" y="479" font-size="10" fill="#363636" font-family="Arial" font-weight="normal" text-anchor="middle">결과로 돌아가기</text></svg>