<svg width="960" height="720" xmlns="http://www.w3.org/2000/svg">
<defs>
  <marker id="arr" viewBox="0 0 10 10" refX="8" refY="5"
    markerWidth="6" markerHeight="6" orient="auto-start-reverse">
    <path d="M2 1L8 5L2 9" fill="none" stroke="#534AB7" stroke-width="1.5"
      stroke-linecap="round" stroke-linejoin="round"/>
  </marker>
</defs>
<rect width="960" height="720" fill="#F1EFE8"/>
<text x="480" y="40" text-anchor="middle" font-size="14" fill="#26215C"
  font-family="Arial" font-weight="bold">TOPIK 문제은행 앱 — 연습문제 v2</text>

<!-- ===== 화면1: 방식 선택 ===== -->
<text x="180" y="86" text-anchor="middle" font-size="9.5" fill="#888780" font-family="Arial" font-weight="normal">방식 선택</text>
<rect x="50" y="110" width="260" height="520" rx="22" fill="#FFFFFF" stroke="#D3D1C7" stroke-width="1.5"/>
<rect x="52" y="110" width="256" height="32" rx="8" fill="#F1EFE8" stroke="#D3D1C7" stroke-width="0.5"/>
<text x="180" y="130" text-anchor="middle" font-size="10" fill="#888780" font-family="Arial">9:41</text>
<rect x="52" y="142" width="256" height="488" rx="14" fill="#FFFFFF"/>

<!-- 헤더 -->
<rect x="52" y="142" width="256" height="28" fill="#FFFFFF" stroke="#D3D1C7" stroke-width="0.3"/>
<text x="180" y="161" font-size="12" fill="#1a1a1a" font-family="Arial" font-weight="bold" text-anchor="middle">연습문제</text>

<!-- 요약 칩 -->
<rect x="52" y="170" width="256" height="24" fill="#EEEDFE"/>
<text x="180" y="186" font-size="9" fill="#534AB7" font-family="Arial" font-weight="bold" text-anchor="middle">TOPIK I  ·  듣기  ·  대화 유형</text>

<!-- 어떻게 풀까요? -->
<text x="64" y="212" font-size="8" fill="#888780" font-family="Arial" font-weight="normal" text-anchor="start">어떻게 풀까요?</text>

<!-- 유형 선택풀기 카드 (활성) -->
<rect x="64" y="222" width="232" height="92" rx="10" fill="#EEEDFE" stroke="#534AB7" stroke-width="0.5"/>
<text x="76" y="242" font-size="11" fill="#534AB7" font-family="Arial" font-weight="bold" text-anchor="start">유형 선택풀기</text>
<text x="76" y="258" font-size="8.5" fill="#534AB7" font-family="Arial" font-weight="normal" text-anchor="start">등급 · 영역 · 유형을 골라서</text>
<text x="76" y="271" font-size="8.5" fill="#534AB7" font-family="Arial" font-weight="normal" text-anchor="start">원하는 문제만 집중 풀기</text>
<rect x="76" y="282" width="58" height="16" rx="20" fill="#FFFFFF" stroke="#534AB7" stroke-width="0.5"/>
<text x="105" y="293" font-size="7" fill="#534AB7" font-family="Arial" font-weight="normal" text-anchor="middle">등급 선택</text>
<rect x="140" y="282" width="58" height="16" rx="20" fill="#FFFFFF" stroke="#534AB7" stroke-width="0.5"/>
<text x="169" y="293" font-size="7" fill="#534AB7" font-family="Arial" font-weight="normal" text-anchor="middle">영역 선택</text>
<rect x="204" y="282" width="58" height="16" rx="20" fill="#FFFFFF" stroke="#534AB7" stroke-width="0.5"/>
<text x="233" y="293" font-size="7" fill="#534AB7" font-family="Arial" font-weight="normal" text-anchor="middle">유형 선택</text>

<!-- 실전 모의고사 카드 (비활성, 명칭 변경) -->
<rect x="64" y="324" width="232" height="92" rx="10" fill="#FFFFFF" stroke="#D3D1C7" stroke-width="0.5"/>
<text x="76" y="344" font-size="11" fill="#1a1a1a" font-family="Arial" font-weight="bold" text-anchor="start">실전 모의고사</text>
<text x="76" y="360" font-size="8.5" fill="#888780" font-family="Arial" font-weight="normal" text-anchor="start">실제 시험 환경으로 타이머를 켜고</text>
<text x="76" y="373" font-size="8.5" fill="#888780" font-family="Arial" font-weight="normal" text-anchor="start">모의고사 문제를 순서대로 풀기</text>
<rect x="76" y="384" width="58" height="16" rx="20" fill="#F8F7F4" stroke="#D3D1C7" stroke-width="0.5"/>
<text x="105" y="395" font-size="7" fill="#888780" font-family="Arial" font-weight="normal" text-anchor="middle">타이머</text>
<rect x="140" y="384" width="58" height="16" rx="20" fill="#F8F7F4" stroke="#D3D1C7" stroke-width="0.5"/>
<text x="169" y="395" font-size="7" fill="#888780" font-family="Arial" font-weight="normal" text-anchor="middle">전체 문항</text>

<!-- 풀기 시작 버튼 -->
<rect x="64" y="542" width="232" height="36" rx="10" fill="#534AB7"/>
<text x="180" y="564" font-size="11" fill="#FFFFFF" font-family="Arial" font-weight="bold" text-anchor="middle">유형 선택풀기 시작</text>

<!-- 탭바 화면1 -->
<rect x="52" y="586" width="256" height="44" fill="#FFFFFF" stroke="#D3D1C7" stroke-width="0.5"/>
<rect x="55" y="590" width="58" height="20" rx="4" fill="#F1EFE8"/>
<text x="84" y="623" font-size="7.5" fill="#888780" font-family="Arial" font-weight="normal" text-anchor="middle">대시보드</text>
<rect x="119" y="590" width="58" height="20" rx="4" fill="#F1EFE8"/>
<text x="148" y="623" font-size="7.5" fill="#888780" font-family="Arial" font-weight="normal" text-anchor="middle">기출문제</text>
<rect x="183" y="590" width="58" height="20" rx="4" fill="#534AB7"/>
<text x="212" y="623" font-size="7.5" fill="#534AB7" font-family="Arial" font-weight="bold" text-anchor="middle">연습문제</text>
<rect x="247" y="590" width="58" height="20" rx="4" fill="#F1EFE8"/>
<text x="276" y="623" font-size="7.5" fill="#888780" font-family="Arial" font-weight="normal" text-anchor="middle">마이페이지</text>

<!-- 화살표 1→2 -->
<line x1="314" y1="370" x2="344" y2="370" stroke="#534AB7" stroke-width="1.5" marker-end="url(#arr)"/>
<text x="329" y="362" font-size="8" fill="#888780" font-family="Arial" font-weight="normal" text-anchor="middle">유형 선택</text>

<!-- ===== 화면2: 유형 선택풀기 ===== -->
<text x="480" y="86" text-anchor="middle" font-size="9.5" fill="#888780" font-family="Arial" font-weight="normal">유형 선택풀기</text>
<rect x="350" y="110" width="260" height="520" rx="22" fill="#FFFFFF" stroke="#D3D1C7" stroke-width="1.5"/>
<rect x="352" y="110" width="256" height="32" rx="8" fill="#F1EFE8" stroke="#D3D1C7" stroke-width="0.5"/>
<text x="480" y="130" text-anchor="middle" font-size="10" fill="#888780" font-family="Arial">9:41</text>
<rect x="352" y="142" width="256" height="488" rx="14" fill="#FFFFFF"/>

<!-- 헤더 -->
<rect x="352" y="142" width="256" height="28" fill="#FFFFFF" stroke="#D3D1C7" stroke-width="0.3"/>
<text x="364" y="161" font-size="9" fill="#888780" font-family="Arial" font-weight="normal" text-anchor="start">← 연습문제</text>
<text x="480" y="161" font-size="11" fill="#1a1a1a" font-family="Arial" font-weight="bold" text-anchor="middle">유형 선택풀기</text>

<!-- 요약 칩 -->
<rect x="352" y="170" width="256" height="24" fill="#EEEDFE"/>
<text x="480" y="186" font-size="9" fill="#534AB7" font-family="Arial" font-weight="bold" text-anchor="middle">TOPIK I  ·  듣기  ·  유형 2개</text>

<!-- 등급 섹션 -->
<text x="364" y="208" font-size="8" fill="#888780" font-family="Arial" font-weight="normal" text-anchor="start">등급</text>
<rect x="364" y="216" width="112" height="22" rx="20" fill="#534AB7"/>
<text x="420" y="231" font-size="8.5" fill="#FFFFFF" font-family="Arial" font-weight="bold" text-anchor="middle">TOPIK I (1~2급)</text>
<rect x="482" y="216" width="110" height="22" rx="20" fill="#FFFFFF" stroke="#D3D1C7" stroke-width="0.5"/>
<text x="537" y="231" font-size="8" fill="#888780" font-family="Arial" font-weight="normal" text-anchor="middle">TOPIK II (3~6급)</text>
<line x1="364" y1="246" x2="596" y2="246" stroke="#D3D1C7" stroke-width="0.5"/>

<!-- 영역 섹션 -->
<text x="364" y="258" font-size="8" fill="#888780" font-family="Arial" font-weight="normal" text-anchor="start">영역</text>
<rect x="364" y="266" width="110" height="40" rx="8" fill="#534AB7"/>
<text x="419" y="283" font-size="10" fill="#FFFFFF" font-family="Arial" font-weight="bold" text-anchor="middle">듣기</text>
<text x="419" y="297" font-size="7" fill="#EEEDFE" font-family="Arial" font-weight="normal" text-anchor="middle">전체 포함</text>
<rect x="480" y="266" width="110" height="40" rx="8" fill="#FFFFFF" stroke="#D3D1C7" stroke-width="0.5"/>
<text x="535" y="283" font-size="10" fill="#1a1a1a" font-family="Arial" font-weight="bold" text-anchor="middle">읽기</text>
<text x="535" y="297" font-size="7" fill="#888780" font-family="Arial" font-weight="normal" text-anchor="middle">전체 포함</text>
<line x1="364" y1="314" x2="596" y2="314" stroke="#D3D1C7" stroke-width="0.5"/>

<!-- 문항유형 섹션 -->
<text x="364" y="326" font-size="8" fill="#888780" font-family="Arial" font-weight="normal" text-anchor="start">문항 유형 · 듣기 기준</text>
<!-- 1. 대화 이해 ✓ -->
<rect x="364" y="334" width="14" height="14" rx="3" fill="#534AB7" stroke="#534AB7" stroke-width="0.5"/>
<text x="371" y="345" font-size="9" fill="#FFFFFF" font-family="Arial" font-weight="bold" text-anchor="middle">✓</text>
<text x="384" y="345" font-size="9.5" fill="#1a1a1a" font-family="Arial" font-weight="normal" text-anchor="start">대화 이해</text>
<line x1="364" y1="356" x2="596" y2="356" stroke="#D3D1C7" stroke-width="0.5"/>
<!-- 2. 세부 내용 파악 ✓ -->
<rect x="364" y="362" width="14" height="14" rx="3" fill="#534AB7" stroke="#534AB7" stroke-width="0.5"/>
<text x="371" y="373" font-size="9" fill="#FFFFFF" font-family="Arial" font-weight="bold" text-anchor="middle">✓</text>
<text x="384" y="373" font-size="9.5" fill="#1a1a1a" font-family="Arial" font-weight="normal" text-anchor="start">세부 내용 파악</text>
<line x1="364" y1="384" x2="596" y2="384" stroke="#D3D1C7" stroke-width="0.5"/>
<!-- 3. 주제·요지 파악 -->
<rect x="364" y="390" width="14" height="14" rx="3" fill="#FFFFFF" stroke="#D3D1C7" stroke-width="0.5"/>
<text x="384" y="401" font-size="9.5" fill="#1a1a1a" font-family="Arial" font-weight="normal" text-anchor="start">주제·요지 파악</text>
<line x1="364" y1="412" x2="596" y2="412" stroke="#D3D1C7" stroke-width="0.5"/>
<!-- 4. 화자 의도 파악 -->
<rect x="364" y="418" width="14" height="14" rx="3" fill="#FFFFFF" stroke="#D3D1C7" stroke-width="0.5"/>
<text x="384" y="429" font-size="9.5" fill="#1a1a1a" font-family="Arial" font-weight="normal" text-anchor="start">화자 의도 파악</text>
<line x1="364" y1="440" x2="596" y2="440" stroke="#D3D1C7" stroke-width="0.5"/>

<!-- 난이도 섹션 -->
<text x="364" y="452" font-size="8" fill="#888780" font-family="Arial" font-weight="normal" text-anchor="start">난이도</text>
<rect x="364" y="460" width="52" height="20" rx="20" fill="#534AB7"/>
<text x="390" y="474" font-size="8" fill="#FFFFFF" font-family="Arial" font-weight="bold" text-anchor="middle">전체</text>
<rect x="422" y="460" width="52" height="20" rx="20" fill="#FFFFFF" stroke="#D3D1C7" stroke-width="0.5"/>
<text x="448" y="474" font-size="8" fill="#888780" font-family="Arial" font-weight="normal" text-anchor="middle">쉬움</text>
<rect x="480" y="460" width="52" height="20" rx="20" fill="#FFFFFF" stroke="#D3D1C7" stroke-width="0.5"/>
<text x="506" y="474" font-size="8" fill="#888780" font-family="Arial" font-weight="normal" text-anchor="middle">보통</text>
<rect x="538" y="460" width="52" height="20" rx="20" fill="#FFFFFF" stroke="#D3D1C7" stroke-width="0.5"/>
<text x="564" y="474" font-size="8" fill="#888780" font-family="Arial" font-weight="normal" text-anchor="middle">어려움</text>

<!-- 하단 요약 + 풀기 버튼 -->
<rect x="364" y="496" width="232" height="24" rx="6" fill="#F1EFE8" stroke="#D3D1C7" stroke-width="0.5"/>
<text x="372" y="512" font-size="8.5" fill="#888780" font-family="Arial" font-weight="normal" text-anchor="start">선택된 유형 2개</text>
<text x="588" y="512" font-size="9" fill="#363636" font-family="Arial" font-weight="bold" text-anchor="end">약 27문항</text>

<rect x="364" y="528" width="232" height="36" rx="10" fill="#534AB7"/>
<text x="480" y="550" font-size="11" fill="#FFFFFF" font-family="Arial" font-weight="bold" text-anchor="middle">풀기 시작</text>

<!-- 탭바 화면2 -->
<rect x="352" y="586" width="256" height="44" fill="#FFFFFF" stroke="#D3D1C7" stroke-width="0.5"/>
<rect x="355" y="590" width="58" height="20" rx="4" fill="#F1EFE8"/>
<text x="384" y="623" font-size="7.5" fill="#888780" font-family="Arial" font-weight="normal" text-anchor="middle">대시보드</text>
<rect x="419" y="590" width="58" height="20" rx="4" fill="#F1EFE8"/>
<text x="448" y="623" font-size="7.5" fill="#888780" font-family="Arial" font-weight="normal" text-anchor="middle">기출문제</text>
<rect x="483" y="590" width="58" height="20" rx="4" fill="#534AB7"/>
<text x="512" y="623" font-size="7.5" fill="#534AB7" font-family="Arial" font-weight="bold" text-anchor="middle">연습문제</text>
<rect x="547" y="590" width="58" height="20" rx="4" fill="#F1EFE8"/>
<text x="576" y="623" font-size="7.5" fill="#888780" font-family="Arial" font-weight="normal" text-anchor="middle">마이페이지</text>

<!-- 화살표 2→3 -->
<line x1="614" y1="370" x2="644" y2="370" stroke="#534AB7" stroke-width="1.5" marker-end="url(#arr)"/>
<text x="629" y="362" font-size="8" fill="#888780" font-family="Arial" font-weight="normal" text-anchor="middle">실전 모의고사</text>

<!-- ===== 화면3: 실전 모의고사 설정 ===== -->
<text x="780" y="86" text-anchor="middle" font-size="9.5" fill="#888780" font-family="Arial" font-weight="normal">실전 모의고사</text>
<rect x="650" y="110" width="260" height="520" rx="22" fill="#FFFFFF" stroke="#D3D1C7" stroke-width="1.5"/>
<rect x="652" y="110" width="256" height="32" rx="8" fill="#F1EFE8" stroke="#D3D1C7" stroke-width="0.5"/>
<text x="780" y="130" text-anchor="middle" font-size="10" fill="#888780" font-family="Arial">9:41</text>
<rect x="652" y="142" width="256" height="488" rx="14" fill="#FFFFFF"/>

<!-- 헤더 -->
<rect x="652" y="142" width="256" height="28" fill="#FFFFFF" stroke="#D3D1C7" stroke-width="0.3"/>
<text x="664" y="161" font-size="9" fill="#888780" font-family="Arial" font-weight="normal" text-anchor="start">← 연습문제</text>
<text x="780" y="161" font-size="11" fill="#1a1a1a" font-family="Arial" font-weight="bold" text-anchor="middle">실전 모의고사</text>

<!-- 요약 칩 -->
<rect x="652" y="170" width="256" height="24" fill="#EEEDFE"/>
<text x="780" y="186" font-size="9" fill="#534AB7" font-family="Arial" font-weight="bold" text-anchor="middle">TOPIK I  ·  실전 모의고사</text>

<!-- 등급 섹션 -->
<text x="664" y="208" font-size="8" fill="#888780" font-family="Arial" font-weight="normal" text-anchor="start">등급</text>
<rect x="664" y="216" width="112" height="22" rx="20" fill="#534AB7"/>
<text x="720" y="231" font-size="8.5" fill="#FFFFFF" font-family="Arial" font-weight="bold" text-anchor="middle">TOPIK I (1~2급)</text>
<rect x="782" y="216" width="110" height="22" rx="20" fill="#FFFFFF" stroke="#D3D1C7" stroke-width="0.5"/>
<text x="837" y="231" font-size="8" fill="#888780" font-family="Arial" font-weight="normal" text-anchor="middle">TOPIK II (3~6급)</text>
<line x1="664" y1="246" x2="896" y2="246" stroke="#D3D1C7" stroke-width="0.5"/>

<!-- 난이도 섹션 -->
<text x="664" y="258" font-size="8" fill="#888780" font-family="Arial" font-weight="normal" text-anchor="start">난이도</text>
<rect x="664" y="266" width="52" height="22" rx="20" fill="#FFFFFF" stroke="#D3D1C7" stroke-width="0.5"/>
<text x="690" y="281" font-size="8" fill="#888780" font-family="Arial" font-weight="normal" text-anchor="middle">쉬움</text>
<rect x="722" y="266" width="52" height="22" rx="20" fill="#534AB7"/>
<text x="748" y="281" font-size="8" fill="#FFFFFF" font-family="Arial" font-weight="bold" text-anchor="middle">보통</text>
<rect x="780" y="266" width="52" height="22" rx="20" fill="#FFFFFF" stroke="#D3D1C7" stroke-width="0.5"/>
<text x="806" y="281" font-size="8" fill="#888780" font-family="Arial" font-weight="normal" text-anchor="middle">어려움</text>
<rect x="838" y="266" width="52" height="22" rx="20" fill="#FFFFFF" stroke="#D3D1C7" stroke-width="0.5"/>
<text x="864" y="281" font-size="8" fill="#888780" font-family="Arial" font-weight="normal" text-anchor="middle">랜덤</text>
<line x1="664" y1="296" x2="896" y2="296" stroke="#D3D1C7" stroke-width="0.5"/>

<!-- 문항수 섹션 (버튼에 문항수+시간 서브텍스트) -->
<text x="664" y="308" font-size="8" fill="#888780" font-family="Arial" font-weight="normal" text-anchor="start">문항 수</text>

<!-- 미니 버튼 (비활성) -->
<rect x="664" y="316" width="110" height="48" rx="8" fill="#FFFFFF" stroke="#D3D1C7" stroke-width="0.5"/>
<text x="719" y="334" font-size="9.5" fill="#888780" font-family="Arial" font-weight="bold" text-anchor="middle">미니</text>
<text x="719" y="348" font-size="7.5" fill="#888780" font-family="Arial" font-weight="normal" text-anchor="middle">20문항 · 25분</text>

<!-- 일반 버튼 (활성) -->
<rect x="780" y="316" width="110" height="48" rx="8" fill="#EEEDFE" stroke="#534AB7" stroke-width="1"/>
<text x="835" y="334" font-size="9.5" fill="#534AB7" font-family="Arial" font-weight="bold" text-anchor="middle">일반</text>
<text x="835" y="348" font-size="7.5" fill="#534AB7" font-family="Arial" font-weight="normal" text-anchor="middle">50문항 · 60분</text>
<line x1="664" y1="372" x2="896" y2="372" stroke="#D3D1C7" stroke-width="0.5"/>

<!-- 구성 요약 -->
<text x="664" y="384" font-size="8" fill="#888780" font-family="Arial" font-weight="normal" text-anchor="start">구성 요약</text>
<rect x="664" y="392" width="232" height="50" rx="8" fill="#F8F7F4" stroke="#D3D1C7" stroke-width="0.5"/>
<text x="676" y="412" font-size="9.5" fill="#1a1a1a" font-family="Arial" font-weight="bold" text-anchor="start">TOPIK I 듣기 + 읽기</text>
<text x="676" y="428" font-size="8.5" fill="#888780" font-family="Arial" font-weight="normal" text-anchor="start">총 50문항 · 난이도 보통 · 60분</text>
<line x1="664" y1="450" x2="896" y2="450" stroke="#D3D1C7" stroke-width="0.5"/>

<!-- 실전 환경 안내 -->
<rect x="664" y="458" width="232" height="38" rx="8" fill="#FAEEDA" stroke="#D3D1C7" stroke-width="0.5"/>
<circle cx="678" cy="477" r="7" fill="#FFFFFF" stroke="#854F0B" stroke-width="1"/>
<text x="692" y="473" font-size="8.5" fill="#633806" font-family="Arial" font-weight="bold" text-anchor="start">타이머가 자동으로 시작돼요</text>
<text x="692" y="486" font-size="8" fill="#854F0B" font-family="Arial" font-weight="normal" text-anchor="start">시간 종료 시 자동 제출</text>

<!-- 실전 모의고사 시작 버튼 (문항수 포함) -->
<rect x="664" y="506" width="232" height="36" rx="10" fill="#534AB7"/>
<text x="780" y="529" font-size="11" fill="#FFFFFF" font-family="Arial" font-weight="bold" text-anchor="middle">실전 모의고사 시작 · 50문항</text>

<!-- 선택풀기 전환 버튼 -->
<rect x="664" y="550" width="232" height="28" rx="10" fill="#FFFFFF" stroke="#D3D1C7" stroke-width="0.5"/>
<text x="780" y="568" font-size="9.5" fill="#888780" font-family="Arial" font-weight="normal" text-anchor="middle">유형 선택풀기로 전환</text>

<!-- 탭바 화면3 -->
<rect x="652" y="586" width="256" height="44" fill="#FFFFFF" stroke="#D3D1C7" stroke-width="0.5"/>
<rect x="655" y="590" width="58" height="20" rx="4" fill="#F1EFE8"/>
<text x="684" y="623" font-size="7.5" fill="#888780" font-family="Arial" font-weight="normal" text-anchor="middle">대시보드</text>
<rect x="719" y="590" width="58" height="20" rx="4" fill="#F1EFE8"/>
<text x="748" y="623" font-size="7.5" fill="#888780" font-family="Arial" font-weight="normal" text-anchor="middle">기출문제</text>
<rect x="783" y="590" width="58" height="20" rx="4" fill="#534AB7"/>
<text x="812" y="623" font-size="7.5" fill="#534AB7" font-family="Arial" font-weight="bold" text-anchor="middle">연습문제</text>
<rect x="847" y="590" width="58" height="20" rx="4" fill="#F1EFE8"/>
<text x="876" y="623" font-size="7.5" fill="#888780" font-family="Arial" font-weight="normal" text-anchor="middle">마이페이지</text>
</svg>
