<svg width="960" height="720" xmlns="http://www.w3.org/2000/svg">
<defs>
  <marker id="arr" viewBox="0 0 10 10" refX="8" refY="5"
    markerWidth="6" markerHeight="6" orient="auto-start-reverse">
    <path d="M2 1L8 5L2 9" fill="none" stroke="#534AB7" stroke-width="1.5"
      stroke-linecap="round" stroke-linejoin="round"/>
  </marker>
</defs>
<rect width="960" height="720" fill="#F1EFE8"/>
<text x="480.0" y="40" text-anchor="middle" font-size="14" fill="#26215C"
  font-family="Arial" font-weight="bold">TOPIK 문제은행 앱 — 연습문제</text>
<text x="180.0" y="86" font-size="9.5" fill="#888780" font-family="Arial" font-weight="normal" text-anchor="middle">방식 선택</text>
  <rect x="50" y="110" width="260" height="520" rx="22" fill="#FFFFFF" stroke="#D3D1C7" stroke-width="1.5"/>
  <rect x="52" y="110" width="256" height="32" rx="8" fill="#F1EFE8" stroke="#D3D1C7" stroke-width="0.5"/>
  <text x="180.0" y="130" text-anchor="middle" font-size="10" fill="#888780" font-family="Arial">9:41</text><rect x="52" y="142" width="256" height="488" rx="14" fill="#FFFFFF"/><rect x="52" y="142" width="256" height="28" rx="0" fill="#F1EFE8"/><text x="180.0" y="160" font-size="12" fill="#1a1a1a" font-family="Arial" font-weight="bold" text-anchor="middle">연습문제</text><rect x="52" y="170" width="256" height="28" rx="0" fill="#EEEDFE"/><text x="180.0" y="188" font-size="9" fill="#534AB7" font-family="Arial" font-weight="bold" text-anchor="middle">TOPIK I  ·  듣기  ·  대화 유형</text><text x="64" y="210" font-size="8" fill="#888780" font-family="Arial" font-weight="normal" text-anchor="start">어떻게 풀까요?</text><rect x="64" y="220" width="232" height="90" rx="10" fill="#EEEDFE" stroke="#534AB7" stroke-width="0.5"/><text x="76" y="238" font-size="11" fill="#534AB7" font-family="Arial" font-weight="bold" text-anchor="start">유형 선택풀기</text><text x="76" y="254" font-size="8.5" fill="#534AB7" font-family="Arial" font-weight="normal" text-anchor="start">등급 · 영역 · 유형을 골라서</text><text x="76" y="267" font-size="8.5" fill="#534AB7" font-family="Arial" font-weight="normal" text-anchor="start">원하는 문제만 집중 풀기</text><rect x="76" y="278" width="62" height="16" rx="20" fill="#FFFFFF" stroke="#534AB7" stroke-width="0.5"/><text x="107" y="289" font-size="7.5" fill="#534AB7" font-family="Arial" font-weight="normal" text-anchor="middle">등급 선택</text><rect x="144" y="278" width="62" height="16" rx="20" fill="#FFFFFF" stroke="#534AB7" stroke-width="0.5"/><text x="175" y="289" font-size="7.5" fill="#534AB7" font-family="Arial" font-weight="normal" text-anchor="middle">영역 선택</text><rect x="212" y="278" width="62" height="16" rx="20" fill="#FFFFFF" stroke="#534AB7" stroke-width="0.5"/><text x="243" y="289" font-size="7.5" fill="#534AB7" font-family="Arial" font-weight="normal" text-anchor="middle">유형 선택</text><rect x="64" y="320" width="232" height="90" rx="10" fill="#FFFFFF" stroke="#D3D1C7" stroke-width="0.5"/><text x="76" y="338" font-size="11" fill="#1a1a1a" font-family="Arial" font-weight="bold" text-anchor="start">실전모드</text><text x="76" y="354" font-size="8.5" fill="#888780" font-family="Arial" font-weight="normal" text-anchor="start">실제 시험처럼 타이머를 켜고</text><text x="76" y="367" font-size="8.5" fill="#888780" font-family="Arial" font-weight="normal" text-anchor="start">전체 문제를 순서대로 풀기</text><rect x="76" y="378" width="62" height="16" rx="20" fill="#F8F7F4" stroke="#D3D1C7" stroke-width="0.5"/><text x="107" y="389" font-size="7.5" fill="#888780" font-family="Arial" font-weight="normal" text-anchor="middle">타이머</text><rect x="144" y="378" width="62" height="16" rx="20" fill="#F8F7F4" stroke="#D3D1C7" stroke-width="0.5"/><text x="175" y="389" font-size="7.5" fill="#888780" font-family="Arial" font-weight="normal" text-anchor="middle">전체 문항</text><rect x="64" y="542" width="232" height="36" rx="10" fill="#534AB7"/><text x="180.0" y="564" font-size="11" fill="#FFFFFF" font-family="Arial" font-weight="bold" text-anchor="middle">유형 선택풀기 시작</text><rect x="52" y="586" width="256" height="44" fill="#FFFFFF" stroke="#D3D1C7" stroke-width="0.5"/><rect x="55.0" y="590" width="58.0" height="20" rx="4" fill="#F1EFE8"/><text x="84.0" y="623" font-size="7.5" fill="#888780" font-family="Arial" font-weight="normal" text-anchor="middle">대시보드</text><rect x="119.0" y="590" width="58.0" height="20" rx="4" fill="#F1EFE8"/><text x="148.0" y="623" font-size="7.5" fill="#888780" font-family="Arial" font-weight="normal" text-anchor="middle">기출문제</text><rect x="183.0" y="590" width="58.0" height="20" rx="4" fill="#534AB7"/><text x="212.0" y="623" font-size="7.5" fill="#534AB7" font-family="Arial" font-weight="bold" text-anchor="middle">연습문제</text><rect x="247.0" y="590" width="58.0" height="20" rx="4" fill="#F1EFE8"/><text x="276.0" y="623" font-size="7.5" fill="#888780" font-family="Arial" font-weight="normal" text-anchor="middle">마이페이지</text><line x1="314" y1="370.0" x2="346" y2="370.0" stroke="#534AB7" stroke-width="1.5" marker-end="url(#arr)"/><text x="330.0" y="362.0" font-size="8.5" fill="#888780" font-family="Arial" font-weight="normal" text-anchor="middle">유형 선택풀기</text><text x="480.0" y="86" font-size="9.5" fill="#888780" font-family="Arial" font-weight="normal" text-anchor="middle">유형 선택풀기</text>
  <rect x="350" y="110" width="260" height="520" rx="22" fill="#FFFFFF" stroke="#D3D1C7" stroke-width="1.5"/>
  <rect x="352" y="110" width="256" height="32" rx="8" fill="#F1EFE8" stroke="#D3D1C7" stroke-width="0.5"/>
  <text x="480.0" y="130" text-anchor="middle" font-size="10" fill="#888780" font-family="Arial">9:41</text><rect x="352" y="142" width="256" height="488" rx="14" fill="#FFFFFF"/><rect x="352" y="142" width="256" height="28" rx="0" fill="#F1EFE8"/><text x="364" y="160" font-size="9" fill="#888780" font-family="Arial" font-weight="normal" text-anchor="start">← 연습문제</text><text x="480.0" y="160" font-size="11" fill="#1a1a1a" font-family="Arial" font-weight="bold" text-anchor="middle">유형 선택풀기</text><rect x="352" y="170" width="256" height="28" rx="0" fill="#EEEDFE"/><text x="480.0" y="188" font-size="9" fill="#534AB7" font-family="Arial" font-weight="bold" text-anchor="middle">TOPIK I  ·  듣기  ·  대화 유형</text><text x="364" y="212" font-size="8" fill="#888780" font-family="Arial" font-weight="normal" text-anchor="start">등급</text><rect x="364" y="222" width="110" height="22" rx="20" fill="#534AB7"/><text x="419" y="237" font-size="8.5" fill="#FFFFFF" font-family="Arial" font-weight="bold" text-anchor="middle">TOPIK I (1~2급)</text><rect x="480" y="222" width="110" height="22" rx="20" fill="#FFFFFF" stroke="#D3D1C7" stroke-width="0.5"/><text x="535" y="237" font-size="8" fill="#888780" font-family="Arial" font-weight="normal" text-anchor="middle">TOPIK II (3~6급)</text><line x1="364" y1="252" x2="596" y2="252" stroke="#D3D1C7" stroke-width="0.5"/><text x="364" y="262" font-size="8" fill="#888780" font-family="Arial" font-weight="normal" text-anchor="start">영역</text><rect x="364" y="272" width="110" height="40" rx="8" fill="#EEEDFE" stroke="#534AB7" stroke-width="0.5"/><text x="419" y="289" font-size="10" fill="#534AB7" font-family="Arial" font-weight="bold" text-anchor="middle">듣기</text><text x="419" y="303" font-size="7.5" fill="#534AB7" font-family="Arial" font-weight="normal" text-anchor="middle">전체 포함</text><rect x="480" y="272" width="110" height="40" rx="8" fill="#FFFFFF" stroke="#D3D1C7" stroke-width="0.5"/><text x="535" y="289" font-size="10" fill="#1a1a1a" font-family="Arial" font-weight="bold" text-anchor="middle">읽기</text><text x="535" y="303" font-size="7.5" fill="#888780" font-family="Arial" font-weight="normal" text-anchor="middle">전체 포함</text><line x1="364" y1="320" x2="596" y2="320" stroke="#D3D1C7" stroke-width="0.5"/><text x="364" y="330" font-size="8" fill="#888780" font-family="Arial" font-weight="normal" text-anchor="start">문항 유형</text><text x="596" y="330" font-size="7.5" fill="#888780" font-family="Arial" font-weight="normal" text-anchor="end">듣기 기준</text><rect x="364" y="342" width="14" height="14" rx="3" fill="#534AB7" stroke="#534AB7" stroke-width="0.5"/><text x="371" y="353" font-size="9" fill="#FFFFFF" font-family="Arial" font-weight="bold" text-anchor="middle">✓</text><text x="384" y="353" font-size="9.5" fill="#1a1a1a" font-family="Arial" font-weight="normal" text-anchor="start">대화 듣고 이어질 말 고르기</text><line x1="364" y1="364" x2="596" y2="364" stroke="#D3D1C7" stroke-width="0.5"/><rect x="364" y="372" width="14" height="14" rx="3" fill="#534AB7" stroke="#534AB7" stroke-width="0.5"/><text x="371" y="383" font-size="9" fill="#FFFFFF" font-family="Arial" font-weight="bold" text-anchor="middle">✓</text><text x="384" y="383" font-size="9.5" fill="#1a1a1a" font-family="Arial" font-weight="normal" text-anchor="start">내용 일치 고르기</text><line x1="364" y1="394" x2="596" y2="394" stroke="#D3D1C7" stroke-width="0.5"/><rect x="364" y="402" width="14" height="14" rx="3" fill="#FFFFFF" stroke="#D3D1C7" stroke-width="0.5"/><text x="384" y="413" font-size="9.5" fill="#1a1a1a" font-family="Arial" font-weight="normal" text-anchor="start">중심 내용 파악</text><line x1="364" y1="424" x2="596" y2="424" stroke="#D3D1C7" stroke-width="0.5"/><rect x="364" y="432" width="14" height="14" rx="3" fill="#FFFFFF" stroke="#D3D1C7" stroke-width="0.5"/><text x="384" y="443" font-size="9.5" fill="#1a1a1a" font-family="Arial" font-weight="normal" text-anchor="start">세부 내용 이해</text><rect x="364" y="472" width="232" height="26" rx="6" fill="#F1EFE8" stroke="#D3D1C7" stroke-width="0.5"/><text x="374" y="489" font-size="9" fill="#888780" font-family="Arial" font-weight="normal" text-anchor="start">선택된 유형 2개</text><text x="586" y="489" font-size="10" fill="#1a1a1a" font-family="Arial" font-weight="bold" text-anchor="end">약 80문항</text><rect x="364" y="506" width="232" height="36" rx="10" fill="#534AB7"/><text x="480.0" y="528" font-size="12" fill="#FFFFFF" font-family="Arial" font-weight="bold" text-anchor="middle">풀기 시작</text><rect x="352" y="586" width="256" height="44" fill="#FFFFFF" stroke="#D3D1C7" stroke-width="0.5"/><rect x="355.0" y="590" width="58.0" height="20" rx="4" fill="#F1EFE8"/><text x="384.0" y="623" font-size="7.5" fill="#888780" font-family="Arial" font-weight="normal" text-anchor="middle">대시보드</text><rect x="419.0" y="590" width="58.0" height="20" rx="4" fill="#F1EFE8"/><text x="448.0" y="623" font-size="7.5" fill="#888780" font-family="Arial" font-weight="normal" text-anchor="middle">기출문제</text><rect x="483.0" y="590" width="58.0" height="20" rx="4" fill="#534AB7"/><text x="512.0" y="623" font-size="7.5" fill="#534AB7" font-family="Arial" font-weight="bold" text-anchor="middle">연습문제</text><rect x="547.0" y="590" width="58.0" height="20" rx="4" fill="#F1EFE8"/><text x="576.0" y="623" font-size="7.5" fill="#888780" font-family="Arial" font-weight="normal" text-anchor="middle">마이페이지</text><line x1="614" y1="370.0" x2="646" y2="370.0" stroke="#534AB7" stroke-width="1.5" marker-end="url(#arr)"/><text x="630.0" y="362.0" font-size="8.5" fill="#888780" font-family="Arial" font-weight="normal" text-anchor="middle">실전모드</text><text x="780.0" y="86" font-size="9.5" fill="#888780" font-family="Arial" font-weight="normal" text-anchor="middle">실전모드</text>
  <rect x="650" y="110" width="260" height="520" rx="22" fill="#FFFFFF" stroke="#D3D1C7" stroke-width="1.5"/>
  <rect x="652" y="110" width="256" height="32" rx="8" fill="#F1EFE8" stroke="#D3D1C7" stroke-width="0.5"/>
  <text x="780.0" y="130" text-anchor="middle" font-size="10" fill="#888780" font-family="Arial">9:41</text><rect x="652" y="142" width="256" height="488" rx="14" fill="#FFFFFF"/><rect x="652" y="142" width="256" height="28" rx="0" fill="#F1EFE8"/><text x="664" y="160" font-size="9" fill="#888780" font-family="Arial" font-weight="normal" text-anchor="start">← 연습문제</text><text x="780.0" y="160" font-size="11" fill="#1a1a1a" font-family="Arial" font-weight="bold" text-anchor="middle">실전모드</text><rect x="652" y="170" width="256" height="28" rx="0" fill="#EEEDFE"/><text x="780.0" y="188" font-size="9" fill="#534AB7" font-family="Arial" font-weight="bold" text-anchor="middle">TOPIK I  ·  실전모드</text><text x="664" y="212" font-size="8" fill="#888780" font-family="Arial" font-weight="normal" text-anchor="start">등급</text><rect x="664" y="222" width="110" height="22" rx="20" fill="#534AB7"/><text x="719" y="237" font-size="8.5" fill="#FFFFFF" font-family="Arial" font-weight="bold" text-anchor="middle">TOPIK I (1~2급)</text><rect x="780" y="222" width="110" height="22" rx="20" fill="#FFFFFF" stroke="#D3D1C7" stroke-width="0.5"/><text x="835" y="237" font-size="8" fill="#888780" font-family="Arial" font-weight="normal" text-anchor="middle">TOPIK II (3~6급)</text><line x1="664" y1="252" x2="896" y2="252" stroke="#D3D1C7" stroke-width="0.5"/><text x="664" y="262" font-size="8" fill="#888780" font-family="Arial" font-weight="normal" text-anchor="start">난이도</text><rect x="664" y="272" width="50" height="22" rx="20" fill="#534AB7" stroke="#534AB7" stroke-width="0.5"/><text x="689" y="287" font-size="8.5" fill="#FFFFFF" font-family="Arial" font-weight="bold" text-anchor="middle">전체</text><rect x="720" y="272" width="50" height="22" rx="20" fill="#FFFFFF" stroke="#D3D1C7" stroke-width="0.5"/><text x="745" y="287" font-size="8.5" fill="#888780" font-family="Arial" font-weight="normal" text-anchor="middle">쉬움</text><rect x="776" y="272" width="50" height="22" rx="20" fill="#FFFFFF" stroke="#D3D1C7" stroke-width="0.5"/><text x="801" y="287" font-size="8.5" fill="#888780" font-family="Arial" font-weight="normal" text-anchor="middle">보통</text><rect x="832" y="272" width="50" height="22" rx="20" fill="#FFFFFF" stroke="#D3D1C7" stroke-width="0.5"/><text x="857" y="287" font-size="8.5" fill="#888780" font-family="Arial" font-weight="normal" text-anchor="middle">어려움</text><line x1="664" y1="302" x2="896" y2="302" stroke="#D3D1C7" stroke-width="0.5"/><text x="664" y="312" font-size="8" fill="#888780" font-family="Arial" font-weight="normal" text-anchor="start">문항 수</text><rect x="664" y="322" width="66" height="22" rx="20" fill="#FFFFFF" stroke="#D3D1C7" stroke-width="0.5"/><text x="697" y="337" font-size="8.5" fill="#888780" font-family="Arial" font-weight="normal" text-anchor="middle">10문항</text><rect x="736" y="322" width="66" height="22" rx="20" fill="#534AB7" stroke="#534AB7" stroke-width="0.5"/><text x="769" y="337" font-size="8.5" fill="#FFFFFF" font-family="Arial" font-weight="bold" text-anchor="middle">20문항</text><rect x="808" y="322" width="66" height="22" rx="20" fill="#FFFFFF" stroke="#D3D1C7" stroke-width="0.5"/><text x="841" y="337" font-size="8.5" fill="#888780" font-family="Arial" font-weight="normal" text-anchor="middle">30문항</text><line x1="664" y1="352" x2="896" y2="352" stroke="#D3D1C7" stroke-width="0.5"/><text x="664" y="362" font-size="8" fill="#888780" font-family="Arial" font-weight="normal" text-anchor="start">구성 요약</text><rect x="664" y="372" width="232" height="50" rx="8" fill="#F8F7F4" stroke="#D3D1C7" stroke-width="0.5"/><text x="674" y="390" font-size="9.5" fill="#1a1a1a" font-family="Arial" font-weight="bold" text-anchor="start">TOPIK I  듣기+읽기</text><text x="674" y="406" font-size="8.5" fill="#888780" font-family="Arial" font-weight="normal" text-anchor="start">총 20문항 · 난이도 보통</text><line x1="664" y1="430" x2="896" y2="430" stroke="#D3D1C7" stroke-width="0.5"/><text x="664" y="440" font-size="8" fill="#888780" font-family="Arial" font-weight="normal" text-anchor="start">실전 환경</text><rect x="664" y="450" width="232" height="38" rx="8" fill="#FAEEDA" stroke="#D3D1C7" stroke-width="0.5"/><circle cx="678" cy="469" r="8" fill="#FFFFFF" stroke="#854F0B" stroke-width="1"/><text x="692" y="465" font-size="8.5" fill="#633806" font-family="Arial" font-weight="bold" text-anchor="start">타이머가 자동으로 시작돼요</text><text x="692" y="478" font-size="8" fill="#854F0B" font-family="Arial" font-weight="normal" text-anchor="start">시간 종료 시 자동 제출</text><rect x="664" y="500" width="232" height="36" rx="10" fill="#534AB7"/><text x="780.0" y="522" font-size="12" fill="#FFFFFF" font-family="Arial" font-weight="bold" text-anchor="middle">실전 시작</text><rect x="664" y="544" width="232" height="30" rx="10" fill="#FFFFFF" stroke="#D3D1C7" stroke-width="0.5"/><text x="780.0" y="563" font-size="10" fill="#888780" font-family="Arial" font-weight="normal" text-anchor="middle">선택풀기로 전환</text><rect x="652" y="586" width="256" height="44" fill="#FFFFFF" stroke="#D3D1C7" stroke-width="0.5"/><rect x="655.0" y="590" width="58.0" height="20" rx="4" fill="#F1EFE8"/><text x="684.0" y="623" font-size="7.5" fill="#888780" font-family="Arial" font-weight="normal" text-anchor="middle">대시보드</text><rect x="719.0" y="590" width="58.0" height="20" rx="4" fill="#F1EFE8"/><text x="748.0" y="623" font-size="7.5" fill="#888780" font-family="Arial" font-weight="normal" text-anchor="middle">기출문제</text><rect x="783.0" y="590" width="58.0" height="20" rx="4" fill="#534AB7"/><text x="812.0" y="623" font-size="7.5" fill="#534AB7" font-family="Arial" font-weight="bold" text-anchor="middle">연습문제</text><rect x="847.0" y="590" width="58.0" height="20" rx="4" fill="#F1EFE8"/><text x="876.0" y="623" font-size="7.5" fill="#888780" font-family="Arial" font-weight="normal" text-anchor="middle">마이페이지</text>
</svg>