<svg width="300" height="564" xmlns="http://www.w3.org/2000/svg"><rect width="300" height="564" fill="#F8F7F4"/><rect x="4" y="4" width="292" height="560" rx="20" fill="white" stroke="#D3D1C7" stroke-width="0.5"/><rect x="6" y="4" width="288" height="32" rx="8" fill="#F1EFE8" stroke="#D3D1C7" stroke-width="0.5"/><text x="150" y="24" font-size="9" fill="#888780" font-family="Arial" font-weight="normal" text-anchor="middle">9:41</text><rect x="6" y="40" width="288" height="36" rx="0" fill="white" stroke="#D3D1C7" stroke-width="0.5"/><text x="20" y="62" font-size="13" fill="#363636" font-family="Arial" font-weight="bold" text-anchor="start">마이페이지</text><circle cx="36" cy="104" r="22" fill="#E1F5EE" stroke="#0F6E56" stroke-width="0.5"/><text x="36" y="109" font-size="11" fill="#085041" font-family="Arial" font-weight="bold" text-anchor="middle">JS</text><text x="68" y="94" font-size="11" fill="#363636" font-family="Arial" font-weight="bold" text-anchor="start">Jaeseok</text><text x="68" y="110" font-size="8" fill="#888780" font-family="Arial" font-weight="normal" text-anchor="start">jaeseok@example.com</text><rect x="68" y="116" width="72" height="16" rx="20" fill="#EEEDFE" stroke="#534AB7" stroke-width="0.5"/><text x="104" y="126.4" font-size="7" fill="#3C3489" font-family="Arial" font-weight="normal" text-anchor="middle">Free 플랜</text><line x1="14" y1="140" x2="282" y2="140" stroke="#D3D1C7" stroke-width="0.5"/><text x="20" y="158" font-size="7" fill="#888780" font-family="Arial" font-weight="normal" text-anchor="start">구독관리</text><rect x="14" y="164" width="132" height="108" rx="8" fill="#EEEDFE" stroke="#534AB7" stroke-width="0.5"/><text x="26" y="180" font-size="11" fill="#3C3489" font-family="Arial" font-weight="bold" text-anchor="start">Free</text><text x="26" y="196" font-size="8" fill="#534AB7" font-family="Arial" font-weight="normal" text-anchor="start">기본 기출문제</text><text x="26" y="210" font-size="8" fill="#534AB7" font-family="Arial" font-weight="normal" text-anchor="start">월 N개 제공</text><text x="26" y="224" font-size="8" fill="#534AB7" font-family="Arial" font-weight="normal" text-anchor="start">다국어 피드백 제한</text><rect x="22" y="236" width="84" height="20" rx="20" fill="#534AB7"/><text x="64" y="250" font-size="7" fill="white" font-family="Arial" font-weight="bold" text-anchor="middle">현재 플랜</text><rect x="152" y="164" width="130" height="108" rx="8" fill="white" stroke="#D3D1C7" stroke-width="0.5"/><text x="168" y="180" font-size="11" fill="#363636" font-family="Arial" font-weight="bold" text-anchor="start">Pro</text><text x="168" y="196" font-size="8" fill="#888780" font-family="Arial" font-weight="normal" text-anchor="start">AI 피드백 · 무제한</text><text x="168" y="210" font-size="8" fill="#888780" font-family="Arial" font-weight="normal" text-anchor="start">다국어 피드백 전체</text><text x="168" y="224" font-size="8" fill="#888780" font-family="Arial" font-weight="normal" text-anchor="start">₩TBD/월</text><rect x="162" y="236" width="104" height="20" rx="20" fill="white" stroke="#534AB7" stroke-width="0.5"/><text x="214" y="250" font-size="7" fill="#534AB7" font-family="Arial" font-weight="normal" text-anchor="middle">업그레이드</text><line x1="14" y1="282" x2="282" y2="282" stroke="#D3D1C7" stroke-width="0.5"/><text x="20" y="298" font-size="7" fill="#888780" font-family="Arial" font-weight="normal" text-anchor="start">설정</text><line x1="14" y1="308" x2="282" y2="308" stroke="#D3D1C7" stroke-width="0.5"/><text x="20" y="328" font-size="10" fill="#363636" font-family="Arial" font-weight="normal" text-anchor="start">언어 설정</text><text x="276" y="328" font-size="9" fill="#888780" font-family="Arial" font-weight="normal" text-anchor="end">한국어 ›</text><line x1="14" y1="344" x2="282" y2="344" stroke="#D3D1C7" stroke-width="0.5"/><text x="20" y="364" font-size="10" fill="#363636" font-family="Arial" font-weight="normal" text-anchor="start">알림 설정</text><text x="276" y="364" font-size="9" fill="#888780" font-family="Arial" font-weight="normal" text-anchor="end">켜짐 ›</text><line x1="14" y1="380" x2="282" y2="380" stroke="#D3D1C7" stroke-width="0.5"/><text x="20" y="400" font-size="10" fill="#363636" font-family="Arial" font-weight="normal" text-anchor="start">목표 레벨</text><text x="276" y="400" font-size="9" fill="#888780" font-family="Arial" font-weight="normal" text-anchor="end">TOPIK I ›</text><line x1="14" y1="416" x2="282" y2="416" stroke="#D3D1C7" stroke-width="0.5"/><text x="20" y="436" font-size="10" fill="#363636" font-family="Arial" font-weight="normal" text-anchor="start">로그아웃</text><text x="276" y="436" font-size="9" fill="#888780" font-family="Arial" font-weight="normal" text-anchor="end">›</text><rect x="6" y="520" width="288" height="44" rx="0" fill="white" stroke="#D3D1C7" stroke-width="0.5"/><rect x="10" y="524" width="64" height="20" rx="4" fill="#F1EFE8"/><text x="42" y="558" font-size="7" fill="#888780" font-family="Arial" font-weight="normal" text-anchor="middle">대시보드</text><rect x="82" y="524" width="64" height="20" rx="4" fill="#F1EFE8"/><text x="114" y="558" font-size="7" fill="#888780" font-family="Arial" font-weight="normal" text-anchor="middle">기출문제</text><rect x="154" y="524" width="64" height="20" rx="4" fill="#F1EFE8"/><text x="186" y="558" font-size="7" fill="#888780" font-family="Arial" font-weight="normal" text-anchor="middle">연습문제</text><rect x="226" y="524" width="64" height="20" rx="4" fill="#534AB7"/><text x="258" y="558" font-size="7" fill="#534AB7" font-family="Arial" font-weight="bold" text-anchor="middle">마이페이지</text></svg>